<svg width="391" height="816" viewBox="0 0 391 816" fill="none" xmlns="http://www.w3.org/2000/svg">
<path d="M226.022 267.791L230.711 277.107C231.342 278.396 233.038 279.618 234.468 279.882L242.947 281.27C248.368 282.162 249.631 286.06 245.741 289.958L239.123 296.533C238.026 297.623 237.394 299.77 237.76 301.323L239.655 309.45C241.152 315.859 237.694 318.37 232.007 315L224.06 310.309C222.63 309.45 220.236 309.45 218.806 310.309L210.859 315C205.173 318.337 201.715 315.859 203.211 309.45L205.106 301.323C205.472 299.803 204.84 297.656 203.743 296.533L197.126 289.958C193.235 286.093 194.499 282.195 199.919 281.27L208.398 279.882C209.828 279.651 211.524 278.396 212.156 277.107L216.844 267.791C219.338 262.736 223.462 262.736 226.022 267.791Z" fill="#EFEFEF"/>
<path opacity="0.4" d="M201.445 269.575H181.494C180.131 269.575 179 268.452 179 267.097C179 265.743 180.131 264.619 181.494 264.619H201.445C202.809 264.619 203.939 265.743 203.939 267.097C203.939 268.452 202.809 269.575 201.445 269.575Z" fill="#EFEFEF"/>
<path opacity="0.4" d="M191.47 315.826H181.494C180.131 315.826 179 314.703 179 313.348C179 311.994 180.131 310.871 181.494 310.871H191.47C192.833 310.871 193.964 311.994 193.964 313.348C193.964 314.703 192.833 315.826 191.47 315.826Z" fill="#EFEFEF"/>
<path opacity="0.4" d="M184.819 292.7H181.494C180.131 292.7 179 291.577 179 290.223C179 288.868 180.131 287.745 181.494 287.745H184.819C186.183 287.745 187.313 288.868 187.313 290.223C187.313 291.577 186.183 292.7 184.819 292.7Z" fill="#EFEFEF"/>
<path d="M218.464 388.419H220.363V396.078C220.363 396.739 220.88 397.287 221.503 397.287C222.126 397.287 222.643 396.739 222.643 396.078V388.419H224.543C225.166 388.419 225.682 387.87 225.682 387.209C225.682 386.548 225.166 386 224.543 386H218.464C217.84 386 217.324 386.548 217.324 387.209C217.324 387.87 217.84 388.419 218.464 388.419Z" fill="#EFEFEF"/>
<path d="M224.543 415.025H222.643V407.365C222.643 406.704 222.126 406.156 221.503 406.156C220.88 406.156 220.363 406.704 220.363 407.365V415.025H218.464C217.84 415.025 217.324 415.573 217.324 416.234C217.324 416.895 217.84 417.443 218.464 417.443H224.543C225.166 417.443 225.682 416.895 225.682 416.234C225.682 415.573 225.166 415.025 224.543 415.025Z" fill="#EFEFEF"/>
<path d="M207.567 398.301C207.75 398.414 207.947 398.463 208.13 398.463C208.525 398.463 208.905 398.253 209.118 397.85L210.075 396.109L216.336 399.946C216.504 400.059 216.701 400.108 216.899 400.108C217.294 400.108 217.674 399.898 217.887 399.495C218.206 398.93 218.008 398.189 217.476 397.85L211.215 394.012L212.157 392.271C212.476 391.69 212.279 390.949 211.747 390.626C211.2 390.287 210.501 390.481 210.197 391.061L207.157 396.641C206.838 397.237 207.02 397.963 207.567 398.301Z" fill="#EFEFEF"/>
<path d="M235.437 405.142C234.89 404.803 234.191 404.997 233.887 405.577L232.929 407.319L226.668 403.497C226.121 403.159 225.422 403.368 225.118 403.933C224.799 404.513 224.996 405.255 225.528 405.577L231.774 409.415L230.832 411.156C230.513 411.737 230.711 412.479 231.243 412.801C231.425 412.914 231.622 412.962 231.805 412.962C232.2 412.962 232.58 412.753 232.793 412.35L235.832 406.771C236.167 406.206 235.984 405.481 235.437 405.142Z" fill="#EFEFEF"/>
<path d="M231.793 394.015L225.532 397.853C224.984 398.191 224.802 398.933 225.121 399.498C225.334 399.885 225.714 400.11 226.109 400.11C226.307 400.11 226.504 400.062 226.671 399.949L232.918 396.111L233.875 397.853C234.088 398.24 234.468 398.466 234.863 398.466C235.06 398.466 235.258 398.417 235.425 398.304C235.972 397.966 236.155 397.224 235.836 396.66L232.796 391.08C232.477 390.5 231.778 390.306 231.246 390.645C230.699 390.984 230.516 391.725 230.836 392.29L231.793 394.015Z" fill="#EFEFEF"/>
<path d="M211.215 409.431L217.461 405.593C218.008 405.255 218.191 404.513 217.871 403.949C217.552 403.368 216.853 403.175 216.321 403.513L210.075 407.351L209.118 405.61C208.798 405.029 208.099 404.836 207.567 405.174C207.02 405.513 206.838 406.255 207.157 406.819L210.197 412.398C210.409 412.785 210.789 413.011 211.184 413.011C211.382 413.011 211.58 412.962 211.747 412.85C212.294 412.511 212.476 411.769 212.157 411.205L211.215 409.431Z" fill="#EFEFEF"/>
<path d="M226.822 401.722C226.822 402.754 226.564 403.705 226.108 404.544C225.181 406.237 223.464 407.365 221.503 407.365C219.543 407.365 217.825 406.237 216.898 404.544C216.442 403.705 216.184 402.754 216.184 401.722C216.184 400.69 216.442 399.738 216.898 398.9C217.825 397.207 219.543 396.078 221.503 396.078C223.464 396.078 225.181 397.207 226.108 398.9C226.564 399.738 226.822 400.69 226.822 401.722Z" fill="#EFEFEF"/>
<path d="M381.375 169.635C380.74 168.557 378.952 166.879 374.502 167.678C372.039 168.118 369.536 168.317 367.033 168.197C357.776 167.798 349.393 163.524 343.553 156.934C338.388 151.143 335.21 143.594 335.17 135.446C335.17 130.893 336.044 126.499 337.832 122.345C339.58 118.311 338.349 116.194 337.475 115.316C336.561 114.397 334.416 113.119 330.204 114.876C313.955 121.746 303.904 138.122 305.096 155.656C306.287 172.152 317.809 186.251 333.065 191.563C336.72 192.841 340.573 193.6 344.546 193.76C345.182 193.8 345.818 193.839 346.453 193.839C359.763 193.839 372.238 187.529 380.104 176.785C382.766 173.07 382.051 170.714 381.375 169.635Z" fill="#EFEFEF"/>
<path d="M297.022 17.7909L301.711 27.1073C302.342 28.3957 304.038 29.618 305.468 29.8823L313.947 31.2699C319.368 32.1618 320.631 36.0602 316.741 39.9585L310.123 46.5327C309.026 47.6229 308.394 49.7703 308.76 51.323L310.655 59.45C312.152 65.8591 308.694 68.3699 303.007 65.0002L295.06 60.309C293.63 59.45 291.236 59.45 289.806 60.309L281.859 65.0002C276.173 68.3369 272.715 65.8591 274.211 59.45L276.106 51.323C276.472 49.8034 275.84 47.656 274.743 46.5327L268.126 39.9585C264.235 36.0932 265.499 32.1949 270.919 31.2699L279.398 29.8823C280.828 29.6511 282.524 28.3957 283.156 27.1073L287.844 17.7909C290.338 12.7364 294.462 12.7364 297.022 17.7909Z" fill="#EFEFEF"/>
<path opacity="0.4" d="M272.445 19.5749H252.494C251.131 19.5749 250 18.4517 250 17.0972C250 15.7427 251.131 14.6194 252.494 14.6194H272.445C273.809 14.6194 274.939 15.7427 274.939 17.0972C274.939 18.4517 273.809 19.5749 272.445 19.5749Z" fill="#EFEFEF"/>
<path opacity="0.4" d="M262.47 65.8261H252.494C251.131 65.8261 250 64.7028 250 63.3483C250 61.9938 251.131 60.8706 252.494 60.8706H262.47C263.833 60.8706 264.964 61.9938 264.964 63.3483C264.964 64.7028 263.833 65.8261 262.47 65.8261Z" fill="#EFEFEF"/>
<path opacity="0.4" d="M255.819 42.7005H252.494C251.131 42.7005 250 41.5772 250 40.2227C250 38.8682 251.131 37.745 252.494 37.745H255.819C257.183 37.745 258.313 38.8682 258.313 40.2227C258.313 41.5772 257.183 42.7005 255.819 42.7005Z" fill="#EFEFEF"/>
<path d="M78.022 224.791L82.7105 234.107C83.3423 235.396 85.0382 236.618 86.4681 236.882L94.9474 238.27C100.368 239.162 101.631 243.06 97.7407 246.958L91.1234 253.533C90.0261 254.623 89.3943 256.77 89.7601 258.323L91.6555 266.45C93.1518 272.859 89.6936 275.37 84.0074 272L76.0601 267.309C74.6302 266.45 72.236 266.45 70.8062 267.309L62.8588 272C57.1727 275.337 53.7145 272.859 55.2109 266.45L57.1063 258.323C57.472 256.803 56.8402 254.656 55.7429 253.533L49.1257 246.958C45.2352 243.093 46.4988 239.195 51.9189 238.27L60.3982 236.882C61.828 236.651 63.5239 235.396 64.1557 234.107L68.8443 224.791C71.3382 219.736 75.4615 219.736 78.022 224.791Z" fill="#EFEFEF"/>
<path opacity="0.4" d="M53.4454 226.575H33.4939C32.1306 226.575 31 225.452 31 224.097C31 222.743 32.1306 221.619 33.4939 221.619H53.4454C54.8088 221.619 55.9393 222.743 55.9393 224.097C55.9393 225.452 54.8088 226.575 53.4454 226.575Z" fill="#EFEFEF"/>
<path opacity="0.4" d="M43.4697 272.826H33.4939C32.1306 272.826 31 271.703 31 270.348C31 268.994 32.1306 267.871 33.4939 267.871H43.4697C44.833 267.871 45.9636 268.994 45.9636 270.348C45.9636 271.703 44.833 272.826 43.4697 272.826Z" fill="#EFEFEF"/>
<path opacity="0.4" d="M36.8192 249.7H33.4939C32.1306 249.7 31 248.577 31 247.223C31 245.868 32.1306 244.745 33.4939 244.745H36.8192C38.1825 244.745 39.3131 245.868 39.3131 247.223C39.3131 248.577 38.1825 249.7 36.8192 249.7Z" fill="#EFEFEF"/>
<path d="M167.375 124.635C166.74 123.557 164.952 121.879 160.502 122.678C158.039 123.118 155.536 123.317 153.033 123.197C143.776 122.798 135.393 118.524 129.553 111.934C124.388 106.143 121.21 98.5937 121.17 90.4458C121.17 85.8925 122.044 81.499 123.832 77.3452C125.58 73.3112 124.349 71.1943 123.475 70.3156C122.561 69.3969 120.416 68.1188 116.204 69.8762C99.9551 76.7461 89.9037 93.1218 91.0955 110.656C92.2874 127.152 103.809 141.251 119.065 146.563C122.72 147.841 126.573 148.6 130.546 148.76C131.182 148.8 131.818 148.839 132.453 148.839C145.763 148.839 158.238 142.529 166.104 131.785C168.766 128.07 168.051 125.714 167.375 124.635Z" fill="#EFEFEF"/>
<path d="M100.375 513.635C99.7396 512.557 97.9518 510.879 93.5021 511.678C91.0389 512.118 88.536 512.317 86.033 512.197C76.7762 511.798 68.3933 507.524 62.5532 500.934C57.3884 495.143 54.2102 487.594 54.1704 479.446C54.1704 474.893 55.0444 470.499 56.8322 466.345C58.5803 462.311 57.3486 460.194 56.4746 459.316C55.5608 458.397 53.4156 457.119 49.2043 458.876C32.9551 465.746 22.9037 482.122 24.0955 499.656C25.2874 516.152 36.8088 530.251 52.0648 535.563C55.7198 536.841 59.5735 537.6 63.5464 537.76C64.1821 537.8 64.8177 537.839 65.4534 537.839C78.7626 537.839 91.2376 531.529 99.1039 520.785C101.766 517.07 101.051 514.714 100.375 513.635Z" fill="#EFEFEF"/>
<path d="M34.7177 657.88H38.6481V673.334C38.6481 674.668 39.7172 675.775 41.0064 675.775C42.2956 675.775 43.3646 674.668 43.3646 673.334V657.88H47.2951C48.5843 657.88 49.6533 656.774 49.6533 655.44C49.6533 654.106 48.5843 653 47.2951 653H34.7177C33.4285 653 32.3595 654.106 32.3595 655.44C32.3595 656.774 33.4285 657.88 34.7177 657.88Z" fill="#EFEFEF"/>
<path d="M47.2951 711.563H43.3646V696.109C43.3646 694.775 42.2956 693.669 41.0064 693.669C39.7172 693.669 38.6481 694.775 38.6481 696.109V711.563H34.7177C33.4285 711.563 32.3595 712.669 32.3595 714.003C32.3595 715.337 33.4285 716.443 34.7177 716.443H47.2951C48.5843 716.443 49.6533 715.337 49.6533 714.003C49.6533 712.669 48.5843 711.563 47.2951 711.563Z" fill="#EFEFEF"/>
<path d="M12.1739 677.821C12.5512 678.049 12.96 678.146 13.3373 678.146C14.1548 678.146 14.9409 677.723 15.3811 676.91L17.3621 673.396L30.3168 681.14C30.6627 681.367 31.0714 681.465 31.4802 681.465C32.2977 681.465 33.0838 681.042 33.524 680.229C34.1843 679.09 33.7756 677.593 32.675 676.91L19.7203 669.166L21.6698 665.653C22.3301 664.481 21.9213 662.985 20.8208 662.334C19.6889 661.651 18.2425 662.041 17.6136 663.213L11.3249 674.47C10.6646 675.673 11.0419 677.138 12.1739 677.821Z" fill="#EFEFEF"/>
<path d="M69.8353 691.623C68.7033 690.939 67.2569 691.33 66.6281 692.501L64.6471 696.015L51.6924 688.304C50.5605 687.621 49.1141 688.044 48.4852 689.182C47.8249 690.354 48.2337 691.85 49.3342 692.501L62.2574 700.244L60.3079 703.758C59.6476 704.929 60.0564 706.426 61.1569 707.077C61.5342 707.304 61.943 707.402 62.3203 707.402C63.1378 707.402 63.9239 706.979 64.3641 706.166L70.6528 694.909C71.3446 693.77 70.9673 692.306 69.8353 691.623Z" fill="#EFEFEF"/>
<path d="M62.2958 669.172L49.3411 676.915C48.2091 677.599 47.8318 679.095 48.4921 680.234C48.9323 681.015 49.7184 681.47 50.5359 681.47C50.9447 681.47 51.3535 681.373 51.6993 681.145L64.6226 673.402L66.6035 676.915C67.0437 677.696 67.8298 678.152 68.6473 678.152C69.0561 678.152 69.4649 678.054 69.8107 677.826C70.9427 677.143 71.32 675.647 70.6597 674.508L64.371 663.251C63.7107 662.08 62.2643 661.689 61.1638 662.372C60.0318 663.056 59.6545 664.552 60.3148 665.691L62.2958 669.172Z" fill="#EFEFEF"/>
<path d="M19.7203 700.277L32.6436 692.534C33.7756 691.85 34.1528 690.354 33.4925 689.215C32.8322 688.044 31.3858 687.653 30.2853 688.337L17.3621 696.08L15.3811 692.566C14.7208 691.395 13.2744 691.005 12.1739 691.688C11.0419 692.371 10.6646 693.868 11.3249 695.006L17.6136 706.263C18.0538 707.044 18.8399 707.5 19.6574 707.5C20.0662 707.5 20.475 707.402 20.8208 707.174C21.9528 706.491 22.3301 704.995 21.6698 703.856L19.7203 700.277Z" fill="#EFEFEF"/>
<path d="M52.0116 684.722C52.0116 686.804 51.477 688.723 50.5337 690.415C48.6157 693.831 45.0626 696.109 41.0064 696.109C36.9502 696.109 33.3971 693.831 31.479 690.415C30.5357 688.723 30.0012 686.804 30.0012 684.722C30.0012 682.639 30.5357 680.72 31.479 679.028C33.3971 675.612 36.9502 673.334 41.0064 673.334C45.0626 673.334 48.6157 675.612 50.5337 679.028C51.477 680.72 52.0116 682.639 52.0116 684.722Z" fill="#EFEFEF"/>
<path d="M53.4636 355.419H55.3633V363.078C55.3633 363.739 55.88 364.287 56.5031 364.287C57.1262 364.287 57.6429 363.739 57.6429 363.078V355.419H59.5426C60.1657 355.419 60.6824 354.87 60.6824 354.209C60.6824 353.548 60.1657 353 59.5426 353H53.4636C52.8405 353 52.3237 353.548 52.3237 354.209C52.3237 354.87 52.8405 355.419 53.4636 355.419Z" fill="#EFEFEF"/>
<path d="M59.5426 382.025H57.6429V374.365C57.6429 373.704 57.1262 373.156 56.5031 373.156C55.88 373.156 55.3633 373.704 55.3633 374.365V382.025H53.4636C52.8405 382.025 52.3237 382.573 52.3237 383.234C52.3237 383.895 52.8405 384.443 53.4636 384.443H59.5426C60.1657 384.443 60.6824 383.895 60.6824 383.234C60.6824 382.573 60.1657 382.025 59.5426 382.025Z" fill="#EFEFEF"/>
<path d="M42.5674 365.302C42.7498 365.414 42.9473 365.463 43.1297 365.463C43.5248 365.463 43.9048 365.253 44.1175 364.85L45.075 363.109L51.3364 366.946C51.5036 367.059 51.7012 367.108 51.8988 367.108C52.2939 367.108 52.6738 366.898 52.8866 366.495C53.2057 365.93 53.0082 365.189 52.4763 364.85L46.2148 361.012L47.1571 359.271C47.4762 358.69 47.2787 357.949 46.7467 357.626C46.1996 357.288 45.5005 357.481 45.1966 358.062L42.157 363.641C41.8379 364.237 42.0203 364.963 42.5674 365.302Z" fill="#EFEFEF"/>
<path d="M70.4371 372.142C69.8899 371.803 69.1908 371.997 68.8869 372.577L67.9294 374.319L61.668 370.497C61.1209 370.159 60.4218 370.368 60.1178 370.933C59.7987 371.513 59.9963 372.255 60.5282 372.577L66.7744 376.415L65.8322 378.156C65.513 378.737 65.7106 379.479 66.2425 379.801C66.4249 379.914 66.6224 379.962 66.8048 379.962C67.2 379.962 67.5799 379.753 67.7927 379.35L70.8322 373.771C71.1665 373.206 70.9842 372.481 70.4371 372.142Z" fill="#EFEFEF"/>
<path d="M66.793 361.015L60.5315 364.853C59.9844 365.191 59.802 365.933 60.1212 366.498C60.334 366.885 60.7139 367.11 61.109 367.11C61.3066 367.11 61.5042 367.062 61.6713 366.949L67.9176 363.111L68.875 364.853C69.0878 365.24 69.4677 365.466 69.8629 365.466C70.0605 365.466 70.258 365.417 70.4252 365.304C70.9723 364.966 71.1547 364.224 70.8355 363.66L67.796 358.08C67.4768 357.5 66.7778 357.306 66.2458 357.645C65.6987 357.984 65.5164 358.725 65.8355 359.29L66.793 361.015Z" fill="#EFEFEF"/>
<path d="M46.2148 376.431L52.4611 372.593C53.0082 372.255 53.1905 371.513 52.8714 370.949C52.5522 370.368 51.8531 370.175 51.3212 370.513L45.075 374.351L44.1175 372.61C43.7984 372.029 43.0993 371.836 42.5674 372.174C42.0203 372.513 41.8379 373.255 42.157 373.819L45.1966 379.398C45.4093 379.785 45.7893 380.011 46.1844 380.011C46.382 380.011 46.5796 379.962 46.7467 379.85C47.2938 379.511 47.4762 378.769 47.1571 378.205L46.2148 376.431Z" fill="#EFEFEF"/>
<path d="M61.8223 368.722C61.8223 369.754 61.5639 370.705 61.108 371.544C60.1809 373.237 58.4636 374.365 56.5031 374.365C54.5426 374.365 52.8253 373.237 51.8982 371.544C51.4423 370.705 51.1839 369.754 51.1839 368.722C51.1839 367.69 51.4423 366.738 51.8982 365.9C52.8253 364.207 54.5426 363.078 56.5031 363.078C58.4636 363.078 60.1809 364.207 61.108 365.9C61.5639 366.738 61.8223 367.69 61.8223 368.722Z" fill="#EFEFEF"/>
<path d="M29.4636 24.4187H31.3633V32.078C31.3633 32.7391 31.88 33.2874 32.5031 33.2874C33.1262 33.2874 33.6429 32.7391 33.6429 32.078V24.4187H35.5426C36.1657 24.4187 36.6824 23.8705 36.6824 23.2094C36.6824 22.5482 36.1657 22 35.5426 22H29.4636C28.8405 22 28.3237 22.5482 28.3237 23.2094C28.3237 23.8705 28.8405 24.4187 29.4636 24.4187Z" fill="#EFEFEF"/>
<path d="M35.5426 51.0246H33.6429V43.3654C33.6429 42.7042 33.1262 42.156 32.5031 42.156C31.88 42.156 31.3633 42.7042 31.3633 43.3654V51.0246H29.4636C28.8405 51.0246 28.3237 51.5729 28.3237 52.234C28.3237 52.8951 28.8405 53.4434 29.4636 53.4434H35.5426C36.1657 53.4434 36.6824 52.8951 36.6824 52.234C36.6824 51.5729 36.1657 51.0246 35.5426 51.0246Z" fill="#EFEFEF"/>
<path d="M18.5674 34.3016C18.7498 34.4144 18.9473 34.4628 19.1297 34.4628C19.5248 34.4628 19.9048 34.2532 20.1175 33.8501L21.075 32.1086L27.3364 35.9463C27.5036 36.0592 27.7012 36.1076 27.8988 36.1076C28.2939 36.1076 28.6738 35.898 28.8866 35.4949C29.2057 34.9305 29.0082 34.1887 28.4763 33.8501L22.2148 30.0124L23.1571 28.2709C23.4762 27.6904 23.2787 26.9487 22.7467 26.6262C22.1996 26.2875 21.5005 26.481 21.1966 27.0615L18.157 32.6407C17.8379 33.2373 18.0203 33.9629 18.5674 34.3016Z" fill="#EFEFEF"/>
<path d="M46.4371 41.1419C45.8899 40.8033 45.1908 40.9968 44.8869 41.5773L43.9294 43.3188L37.668 39.4972C37.1209 39.1586 36.4218 39.3682 36.1178 39.9326C35.7987 40.5131 35.9963 41.2548 36.5282 41.5773L42.7744 45.415L41.8322 47.1565C41.513 47.737 41.7106 48.4787 42.2425 48.8012C42.4249 48.9141 42.6224 48.9624 42.8048 48.9624C43.2 48.9624 43.5799 48.7528 43.7927 48.3497L46.8322 42.7705C47.1665 42.2062 46.9842 41.4805 46.4371 41.1419Z" fill="#EFEFEF"/>
<path d="M42.793 30.0151L36.5315 33.8528C35.9844 34.1914 35.802 34.9332 36.1212 35.4976C36.334 35.8846 36.7139 36.1103 37.109 36.1103C37.3066 36.1103 37.5042 36.0619 37.6713 35.9491L43.9176 32.1113L44.875 33.8528C45.0878 34.2398 45.4677 34.4655 45.8629 34.4655C46.0605 34.4655 46.258 34.4172 46.4252 34.3043C46.9723 33.9657 47.1547 33.2239 46.8355 32.6596L43.796 27.0804C43.4768 26.4999 42.7778 26.3064 42.2458 26.645C41.6987 26.9836 41.5164 27.7254 41.8355 28.2897L42.793 30.0151Z" fill="#EFEFEF"/>
<path d="M22.2148 45.4311L28.4611 41.5934C29.0082 41.2548 29.1905 40.513 28.8714 39.9487C28.5522 39.3682 27.8531 39.1747 27.3212 39.5133L21.075 43.351L20.1175 41.6095C19.7984 41.029 19.0993 40.8355 18.5674 41.1742C18.0203 41.5128 17.8379 42.2545 18.157 42.8189L21.1966 48.3981C21.4093 48.7851 21.7893 49.0108 22.1844 49.0108C22.382 49.0108 22.5796 48.9624 22.7467 48.8496C23.2938 48.5109 23.4762 47.7692 23.1571 47.2048L22.2148 45.4311Z" fill="#EFEFEF"/>
<path d="M37.8223 37.7217C37.8223 38.7537 37.5639 39.705 37.108 40.5435C36.1809 42.2366 34.4636 43.3654 32.5031 43.3654C30.5426 43.3654 28.8253 42.2366 27.8982 40.5435C27.4423 39.705 27.1839 38.7537 27.1839 37.7217C27.1839 36.6897 27.4423 35.7383 27.8982 34.8998C28.8253 33.2067 30.5426 32.078 32.5031 32.078C34.4636 32.078 36.1809 33.2067 37.108 34.8998C37.5639 35.7383 37.8223 36.6897 37.8223 37.7217Z" fill="#EFEFEF"/>
<path d="M181.517 395.353L1 814H391V2L216.78 452.136L181.517 395.353Z" fill="#5703C1"/>
<path d="M351.375 490.013H352.368C353.791 490.013 354.999 488.718 354.999 487.122C354.999 485.095 354.525 484.836 353.144 484.361L351.375 483.757V490.013Z" fill="#5107AF"/>
<path d="M351.375 490.013H352.368C353.791 490.013 354.999 488.718 354.999 487.122C354.999 485.095 354.525 484.836 353.144 484.361L351.375 483.757V490.013Z" fill="#5107AF"/>
<path d="M337.5 462C319.56 462 305 475.44 305 492C305 508.56 319.56 522 337.5 522C355.44 522 370 508.56 370 492C370 475.44 355.44 462 337.5 462ZM323.135 505.26C324.077 506.13 324.077 507.57 323.135 508.44C322.647 508.89 322.03 509.1 321.412 509.1C320.795 509.1 320.177 508.89 319.69 508.44C314.945 504.06 312.312 498.21 312.312 492C312.312 485.79 314.945 479.94 319.69 475.56C320.632 474.69 322.192 474.69 323.135 475.56C324.077 476.43 324.077 477.87 323.135 478.74C319.3 482.28 317.188 486.99 317.188 492C317.188 497.01 319.3 501.72 323.135 505.26ZM342.862 491.34C345.982 492.36 347.51 494.37 347.51 497.52C347.51 501.12 344.455 504.03 340.653 504.03H339.905V504.57C339.905 505.8 338.8 506.82 337.467 506.82C336.135 506.82 335.03 505.8 335.03 504.57V504.03H334.933C330.805 504.03 327.425 500.82 327.425 496.89C327.425 495.66 328.53 494.64 329.862 494.64C331.195 494.64 332.3 495.66 332.3 496.89C332.3 498.36 333.47 499.53 334.933 499.53H335.03V493.59L332.105 492.63C328.985 491.61 327.457 489.6 327.457 486.45C327.457 482.85 330.512 479.94 334.315 479.94H335.062V479.4C335.062 478.17 336.168 477.15 337.5 477.15C338.832 477.15 339.938 478.17 339.938 479.4V479.94H340.035C344.162 479.94 347.543 483.15 347.543 487.08C347.543 488.31 346.438 489.33 345.105 489.33C343.773 489.33 342.668 488.31 342.668 487.08C342.668 485.61 341.497 484.44 340.035 484.44H339.938V490.38L342.862 491.34ZM355.31 508.44C354.822 508.89 354.205 509.1 353.588 509.1C352.97 509.1 352.353 508.89 351.865 508.44C350.923 507.57 350.923 506.13 351.865 505.26C355.7 501.72 357.812 497.01 357.812 492C357.812 486.99 355.7 482.28 351.865 478.74C350.923 477.87 350.923 476.43 351.865 475.56C352.808 474.69 354.367 474.69 355.31 475.56C360.055 479.94 362.688 485.79 362.688 492C362.688 498.21 360.055 504.06 355.31 508.44Z" fill="#5107AF"/>
<path d="M337.5 462C319.56 462 305 475.44 305 492C305 508.56 319.56 522 337.5 522C355.44 522 370 508.56 370 492C370 475.44 355.44 462 337.5 462ZM323.135 505.26C324.077 506.13 324.077 507.57 323.135 508.44C322.647 508.89 322.03 509.1 321.412 509.1C320.795 509.1 320.177 508.89 319.69 508.44C314.945 504.06 312.312 498.21 312.312 492C312.312 485.79 314.945 479.94 319.69 475.56C320.632 474.69 322.192 474.69 323.135 475.56C324.077 476.43 324.077 477.87 323.135 478.74C319.3 482.28 317.188 486.99 317.188 492C317.188 497.01 319.3 501.72 323.135 505.26ZM342.862 491.34C345.982 492.36 347.51 494.37 347.51 497.52C347.51 501.12 344.455 504.03 340.653 504.03H339.905V504.57C339.905 505.8 338.8 506.82 337.467 506.82C336.135 506.82 335.03 505.8 335.03 504.57V504.03H334.933C330.805 504.03 327.425 500.82 327.425 496.89C327.425 495.66 328.53 494.64 329.862 494.64C331.195 494.64 332.3 495.66 332.3 496.89C332.3 498.36 333.47 499.53 334.933 499.53H335.03V493.59L332.105 492.63C328.985 491.61 327.457 489.6 327.457 486.45C327.457 482.85 330.512 479.94 334.315 479.94H335.062V479.4C335.062 478.17 336.168 477.15 337.5 477.15C338.832 477.15 339.938 478.17 339.938 479.4V479.94H340.035C344.162 479.94 347.543 483.15 347.543 487.08C347.543 488.31 346.438 489.33 345.105 489.33C343.773 489.33 342.668 488.31 342.668 487.08C342.668 485.61 341.497 484.44 340.035 484.44H339.938V490.38L342.862 491.34ZM355.31 508.44C354.822 508.89 354.205 509.1 353.588 509.1C352.97 509.1 352.353 508.89 351.865 508.44C350.923 507.57 350.923 506.13 351.865 505.26C355.7 501.72 357.812 497.01 357.812 492C357.812 486.99 355.7 482.28 351.865 478.74C350.923 477.87 350.923 476.43 351.865 475.56C352.808 474.69 354.367 474.69 355.31 475.56C360.055 479.94 362.688 485.79 362.688 492C362.688 498.21 360.055 504.06 355.31 508.44Z" fill="#5107AF"/>
<path d="M341.323 471.204C341.323 473.232 341.798 473.491 343.178 473.965L344.947 474.569V468.271H343.955C342.488 468.271 341.323 469.608 341.323 471.204Z" fill="#5107AF"/>
<path d="M341.323 471.204C341.323 473.232 341.798 473.491 343.178 473.965L344.947 474.569V468.271H343.955C342.488 468.271 341.323 469.608 341.323 471.204Z" fill="#5107AF"/>
<path d="M336.375 303.013H337.368C338.791 303.013 339.999 301.718 339.999 300.122C339.999 298.095 339.525 297.836 338.144 297.361L336.375 296.757V303.013Z" fill="#5107AF"/>
<path d="M336.375 303.013H337.368C338.791 303.013 339.999 301.718 339.999 300.122C339.999 298.095 339.525 297.836 338.144 297.361L336.375 296.757V303.013Z" fill="#5107AF"/>
<path d="M333.14 249C309.327 249 290 268.327 290 292.14C290 315.953 309.327 335.28 333.14 335.28C356.953 335.28 376.28 315.953 376.28 292.14C376.28 268.327 356.953 249 333.14 249ZM314.072 311.208C315.323 312.459 315.323 314.53 314.072 315.781C313.425 316.428 312.605 316.73 311.786 316.73C310.966 316.73 310.146 316.428 309.499 315.781C303.201 309.482 299.707 301.07 299.707 292.14C299.707 283.21 303.201 274.798 309.499 268.499C310.75 267.248 312.821 267.248 314.072 268.499C315.323 269.75 315.323 271.821 314.072 273.072C308.982 278.163 306.178 284.936 306.178 292.14C306.178 299.344 308.982 306.117 314.072 311.208ZM340.258 291.191C344.4 292.658 346.427 295.548 346.427 300.078C346.427 305.255 342.372 309.439 337.325 309.439H336.332V310.216C336.332 311.984 334.866 313.451 333.097 313.451C331.328 313.451 329.861 311.984 329.861 310.216V309.439H329.732C324.253 309.439 319.767 304.823 319.767 299.172C319.767 297.403 321.233 295.936 323.002 295.936C324.771 295.936 326.238 297.403 326.238 299.172C326.238 301.286 327.791 302.968 329.732 302.968H329.861V294.426L325.979 293.046C321.837 291.579 319.81 288.689 319.81 284.159C319.81 278.982 323.865 274.798 328.912 274.798H329.905V274.021C329.905 272.252 331.371 270.786 333.14 270.786C334.909 270.786 336.376 272.252 336.376 274.021V274.798H336.505C341.984 274.798 346.47 279.414 346.47 285.065C346.47 286.834 345.004 288.301 343.235 288.301C341.466 288.301 339.999 286.834 339.999 285.065C339.999 282.951 338.446 281.269 336.505 281.269H336.376V289.81L340.258 291.191ZM356.781 315.781C356.134 316.428 355.314 316.73 354.494 316.73C353.675 316.73 352.855 316.428 352.208 315.781C350.957 314.53 350.957 312.459 352.208 311.208C357.298 306.117 360.103 299.344 360.103 292.14C360.103 284.936 357.298 278.163 352.208 273.072C350.957 271.821 350.957 269.75 352.208 268.499C353.459 267.248 355.53 267.248 356.781 268.499C363.079 274.798 366.574 283.21 366.574 292.14C366.574 301.07 363.079 309.482 356.781 315.781Z" fill="#5107AF"/>
<path d="M333.14 249C309.327 249 290 268.327 290 292.14C290 315.953 309.327 335.28 333.14 335.28C356.953 335.28 376.28 315.953 376.28 292.14C376.28 268.327 356.953 249 333.14 249ZM314.072 311.208C315.323 312.459 315.323 314.53 314.072 315.781C313.425 316.428 312.605 316.73 311.786 316.73C310.966 316.73 310.146 316.428 309.499 315.781C303.201 309.482 299.707 301.07 299.707 292.14C299.707 283.21 303.201 274.798 309.499 268.499C310.75 267.248 312.821 267.248 314.072 268.499C315.323 269.75 315.323 271.821 314.072 273.072C308.982 278.163 306.178 284.936 306.178 292.14C306.178 299.344 308.982 306.117 314.072 311.208ZM340.258 291.191C344.4 292.658 346.427 295.548 346.427 300.078C346.427 305.255 342.372 309.439 337.325 309.439H336.332V310.216C336.332 311.984 334.866 313.451 333.097 313.451C331.328 313.451 329.861 311.984 329.861 310.216V309.439H329.732C324.253 309.439 319.767 304.823 319.767 299.172C319.767 297.403 321.233 295.936 323.002 295.936C324.771 295.936 326.238 297.403 326.238 299.172C326.238 301.286 327.791 302.968 329.732 302.968H329.861V294.426L325.979 293.046C321.837 291.579 319.81 288.689 319.81 284.159C319.81 278.982 323.865 274.798 328.912 274.798H329.905V274.021C329.905 272.252 331.371 270.786 333.14 270.786C334.909 270.786 336.376 272.252 336.376 274.021V274.798H336.505C341.984 274.798 346.47 279.414 346.47 285.065C346.47 286.834 345.004 288.301 343.235 288.301C341.466 288.301 339.999 286.834 339.999 285.065C339.999 282.951 338.446 281.269 336.505 281.269H336.376V289.81L340.258 291.191ZM356.781 315.781C356.134 316.428 355.314 316.73 354.494 316.73C353.675 316.73 352.855 316.428 352.208 315.781C350.957 314.53 350.957 312.459 352.208 311.208C357.298 306.117 360.103 299.344 360.103 292.14C360.103 284.936 357.298 278.163 352.208 273.072C350.957 271.821 350.957 269.75 352.208 268.499C353.459 267.248 355.53 267.248 356.781 268.499C363.079 274.798 366.574 283.21 366.574 292.14C366.574 301.07 363.079 309.482 356.781 315.781Z" fill="#5107AF"/>
<path d="M326.323 284.204C326.323 286.232 326.798 286.491 328.178 286.965L329.947 287.569V281.271H328.955C327.488 281.271 326.323 282.608 326.323 284.204Z" fill="#5107AF"/>
<path d="M326.323 284.204C326.323 286.232 326.798 286.491 328.178 286.965L329.947 287.569V281.271H328.955C327.488 281.271 326.323 282.608 326.323 284.204Z" fill="#5107AF"/>
<path d="M341.375 663.013H342.368C343.791 663.013 344.999 661.718 344.999 660.122C344.999 658.095 344.525 657.836 343.144 657.361L341.375 656.757V663.013Z" fill="#5107AF"/>
<path d="M341.375 663.013H342.368C343.791 663.013 344.999 661.718 344.999 660.122C344.999 658.095 344.525 657.836 343.144 657.361L341.375 656.757V663.013Z" fill="#5107AF"/>
<path d="M338.14 609C314.327 609 295 628.327 295 652.14C295 675.953 314.327 695.28 338.14 695.28C361.953 695.28 381.28 675.953 381.28 652.14C381.28 628.327 361.953 609 338.14 609ZM319.072 671.208C320.323 672.459 320.323 674.53 319.072 675.781C318.425 676.428 317.605 676.73 316.786 676.73C315.966 676.73 315.146 676.428 314.499 675.781C308.201 669.482 304.707 661.07 304.707 652.14C304.707 643.21 308.201 634.798 314.499 628.499C315.75 627.248 317.821 627.248 319.072 628.499C320.323 629.75 320.323 631.821 319.072 633.072C313.982 638.163 311.178 644.936 311.178 652.14C311.178 659.344 313.982 666.117 319.072 671.208ZM345.258 651.191C349.4 652.658 351.427 655.548 351.427 660.078C351.427 665.255 347.372 669.439 342.325 669.439H341.332V670.216C341.332 671.984 339.866 673.451 338.097 673.451C336.328 673.451 334.861 671.984 334.861 670.216V669.439H334.732C329.253 669.439 324.767 664.823 324.767 659.172C324.767 657.403 326.233 655.936 328.002 655.936C329.771 655.936 331.238 657.403 331.238 659.172C331.238 661.286 332.791 662.968 334.732 662.968H334.861V654.426L330.979 653.046C326.837 651.579 324.81 648.689 324.81 644.159C324.81 638.982 328.865 634.798 333.912 634.798H334.905V634.021C334.905 632.252 336.371 630.786 338.14 630.786C339.909 630.786 341.376 632.252 341.376 634.021V634.798H341.505C346.984 634.798 351.47 639.414 351.47 645.065C351.47 646.834 350.004 648.301 348.235 648.301C346.466 648.301 344.999 646.834 344.999 645.065C344.999 642.951 343.446 641.269 341.505 641.269H341.376V649.81L345.258 651.191ZM361.781 675.781C361.134 676.428 360.314 676.73 359.494 676.73C358.675 676.73 357.855 676.428 357.208 675.781C355.957 674.53 355.957 672.459 357.208 671.208C362.298 666.117 365.103 659.344 365.103 652.14C365.103 644.936 362.298 638.163 357.208 633.072C355.957 631.821 355.957 629.75 357.208 628.499C358.459 627.248 360.53 627.248 361.781 628.499C368.079 634.798 371.574 643.21 371.574 652.14C371.574 661.07 368.079 669.482 361.781 675.781Z" fill="#5107AF"/>
<path d="M338.14 609C314.327 609 295 628.327 295 652.14C295 675.953 314.327 695.28 338.14 695.28C361.953 695.28 381.28 675.953 381.28 652.14C381.28 628.327 361.953 609 338.14 609ZM319.072 671.208C320.323 672.459 320.323 674.53 319.072 675.781C318.425 676.428 317.605 676.73 316.786 676.73C315.966 676.73 315.146 676.428 314.499 675.781C308.201 669.482 304.707 661.07 304.707 652.14C304.707 643.21 308.201 634.798 314.499 628.499C315.75 627.248 317.821 627.248 319.072 628.499C320.323 629.75 320.323 631.821 319.072 633.072C313.982 638.163 311.178 644.936 311.178 652.14C311.178 659.344 313.982 666.117 319.072 671.208ZM345.258 651.191C349.4 652.658 351.427 655.548 351.427 660.078C351.427 665.255 347.372 669.439 342.325 669.439H341.332V670.216C341.332 671.984 339.866 673.451 338.097 673.451C336.328 673.451 334.861 671.984 334.861 670.216V669.439H334.732C329.253 669.439 324.767 664.823 324.767 659.172C324.767 657.403 326.233 655.936 328.002 655.936C329.771 655.936 331.238 657.403 331.238 659.172C331.238 661.286 332.791 662.968 334.732 662.968H334.861V654.426L330.979 653.046C326.837 651.579 324.81 648.689 324.81 644.159C324.81 638.982 328.865 634.798 333.912 634.798H334.905V634.021C334.905 632.252 336.371 630.786 338.14 630.786C339.909 630.786 341.376 632.252 341.376 634.021V634.798H341.505C346.984 634.798 351.47 639.414 351.47 645.065C351.47 646.834 350.004 648.301 348.235 648.301C346.466 648.301 344.999 646.834 344.999 645.065C344.999 642.951 343.446 641.269 341.505 641.269H341.376V649.81L345.258 651.191ZM361.781 675.781C361.134 676.428 360.314 676.73 359.494 676.73C358.675 676.73 357.855 676.428 357.208 675.781C355.957 674.53 355.957 672.459 357.208 671.208C362.298 666.117 365.103 659.344 365.103 652.14C365.103 644.936 362.298 638.163 357.208 633.072C355.957 631.821 355.957 629.75 357.208 628.499C358.459 627.248 360.53 627.248 361.781 628.499C368.079 634.798 371.574 643.21 371.574 652.14C371.574 661.07 368.079 669.482 361.781 675.781Z" fill="#5107AF"/>
<path d="M331.323 644.204C331.323 646.232 331.798 646.491 333.178 646.965L334.947 647.569V641.271H333.955C332.488 641.271 331.323 642.608 331.323 644.204Z" fill="#5107AF"/>
<path d="M331.323 644.204C331.323 646.232 331.798 646.491 333.178 646.965L334.947 647.569V641.271H333.955C332.488 641.271 331.323 642.608 331.323 644.204Z" fill="#5107AF"/>
<path d="M332.933 766.228L330.217 772.505H327.501C327.05 772.505 326.611 772.538 326.182 772.628L327.309 769.943L327.355 769.842L327.422 769.663C327.456 769.585 327.479 769.518 327.512 769.462C328.82 766.452 330.285 765.512 332.933 766.228Z" fill="#5107AF"/>
<path d="M340.588 772.804L340.566 772.793C339.889 772.603 339.202 772.502 338.503 772.502H331.448L333.984 766.651L334.018 766.573C334.175 766.628 334.344 766.707 334.513 766.763L337.004 767.803C338.39 768.374 339.36 768.967 339.957 769.683C340.059 769.817 340.149 769.94 340.239 770.086C340.34 770.242 340.419 770.399 340.464 770.567C340.509 770.667 340.543 770.757 340.566 770.858C340.735 771.428 340.746 772.077 340.588 772.804Z" fill="#5107AF"/>
<path d="M333.587 783.51H333.869C334.207 783.51 334.489 783.208 334.489 782.839C334.489 782.369 334.354 782.302 334.061 782.19L333.587 782.022V783.51Z" fill="#5107AF"/>
<path d="M340.089 774.405C339.582 774.26 339.052 774.182 338.5 774.182H327.5C326.734 774.182 326.012 774.327 325.336 774.618C323.375 775.457 322 777.393 322 779.641V781.823C322 782.092 322.023 782.349 322.056 782.618C322.304 786.175 324.22 788.077 327.804 788.312C328.064 788.346 328.323 788.368 328.605 788.368H337.395C341.566 788.368 343.763 786.399 343.977 782.483C343.989 782.271 344 782.047 344 781.823V779.641C344 777.169 342.343 775.088 340.089 774.405ZM334.443 781.096C334.961 781.275 335.66 781.655 335.66 782.841C335.66 783.859 334.86 784.676 333.868 784.676H333.586V784.922C333.586 785.247 333.327 785.504 333 785.504C332.673 785.504 332.414 785.247 332.414 784.922V784.676H332.313C331.231 784.676 330.34 783.77 330.34 782.651C330.34 782.327 330.599 782.069 330.926 782.069C331.253 782.069 331.512 782.327 331.512 782.651C331.512 783.121 331.873 783.513 332.313 783.513H332.414V781.622L331.557 781.32C331.039 781.141 330.34 780.76 330.34 779.574C330.34 778.556 331.14 777.739 332.132 777.739H332.414V777.493C332.414 777.169 332.673 776.911 333 776.911C333.327 776.911 333.586 777.169 333.586 777.493V777.739H333.688C334.769 777.739 335.66 778.646 335.66 779.765C335.66 780.089 335.401 780.346 335.074 780.346C334.747 780.346 334.488 780.089 334.488 779.765C334.488 779.295 334.127 778.903 333.688 778.903H333.586V780.794L334.443 781.096Z" fill="#5107AF"/>
<path d="M331.514 779.573C331.514 780.043 331.649 780.11 331.942 780.222L332.415 780.39V778.902H332.134C331.784 778.902 331.514 779.204 331.514 779.573Z" fill="#5107AF"/>
<path d="M222.375 756.013H223.368C224.791 756.013 225.999 754.718 225.999 753.122C225.999 751.095 225.525 750.836 224.144 750.361L222.375 749.757V756.013Z" fill="#5107AF"/>
<path d="M222.375 756.013H223.368C224.791 756.013 225.999 754.718 225.999 753.122C225.999 751.095 225.525 750.836 224.144 750.361L222.375 749.757V756.013Z" fill="#5107AF"/>
<path d="M219.14 702C195.327 702 176 721.327 176 745.14C176 768.953 195.327 788.28 219.14 788.28C242.953 788.28 262.28 768.953 262.28 745.14C262.28 721.327 242.953 702 219.14 702ZM200.072 764.208C201.323 765.459 201.323 767.53 200.072 768.781C199.425 769.428 198.605 769.73 197.786 769.73C196.966 769.73 196.146 769.428 195.499 768.781C189.201 762.482 185.707 754.07 185.707 745.14C185.707 736.21 189.201 727.798 195.499 721.499C196.75 720.248 198.821 720.248 200.072 721.499C201.323 722.75 201.323 724.821 200.072 726.072C194.982 731.163 192.178 737.936 192.178 745.14C192.178 752.344 194.982 759.117 200.072 764.208ZM226.258 744.191C230.4 745.658 232.427 748.548 232.427 753.078C232.427 758.255 228.372 762.439 223.325 762.439H222.332V763.216C222.332 764.984 220.866 766.451 219.097 766.451C217.328 766.451 215.861 764.984 215.861 763.216V762.439H215.732C210.253 762.439 205.767 757.823 205.767 752.172C205.767 750.403 207.233 748.936 209.002 748.936C210.771 748.936 212.238 750.403 212.238 752.172C212.238 754.286 213.791 755.968 215.732 755.968H215.861V747.426L211.979 746.046C207.837 744.579 205.81 741.689 205.81 737.159C205.81 731.982 209.865 727.798 214.912 727.798H215.905V727.021C215.905 725.252 217.371 723.786 219.14 723.786C220.909 723.786 222.376 725.252 222.376 727.021V727.798H222.505C227.984 727.798 232.47 732.414 232.47 738.065C232.47 739.834 231.004 741.301 229.235 741.301C227.466 741.301 225.999 739.834 225.999 738.065C225.999 735.951 224.446 734.269 222.505 734.269H222.376V742.81L226.258 744.191ZM242.781 768.781C242.134 769.428 241.314 769.73 240.494 769.73C239.675 769.73 238.855 769.428 238.208 768.781C236.957 767.53 236.957 765.459 238.208 764.208C243.298 759.117 246.103 752.344 246.103 745.14C246.103 737.936 243.298 731.163 238.208 726.072C236.957 724.821 236.957 722.75 238.208 721.499C239.459 720.248 241.53 720.248 242.781 721.499C249.079 727.798 252.574 736.21 252.574 745.14C252.574 754.07 249.079 762.482 242.781 768.781Z" fill="#5107AF"/>
<path d="M219.14 702C195.327 702 176 721.327 176 745.14C176 768.953 195.327 788.28 219.14 788.28C242.953 788.28 262.28 768.953 262.28 745.14C262.28 721.327 242.953 702 219.14 702ZM200.072 764.208C201.323 765.459 201.323 767.53 200.072 768.781C199.425 769.428 198.605 769.73 197.786 769.73C196.966 769.73 196.146 769.428 195.499 768.781C189.201 762.482 185.707 754.07 185.707 745.14C185.707 736.21 189.201 727.798 195.499 721.499C196.75 720.248 198.821 720.248 200.072 721.499C201.323 722.75 201.323 724.821 200.072 726.072C194.982 731.163 192.178 737.936 192.178 745.14C192.178 752.344 194.982 759.117 200.072 764.208ZM226.258 744.191C230.4 745.658 232.427 748.548 232.427 753.078C232.427 758.255 228.372 762.439 223.325 762.439H222.332V763.216C222.332 764.984 220.866 766.451 219.097 766.451C217.328 766.451 215.861 764.984 215.861 763.216V762.439H215.732C210.253 762.439 205.767 757.823 205.767 752.172C205.767 750.403 207.233 748.936 209.002 748.936C210.771 748.936 212.238 750.403 212.238 752.172C212.238 754.286 213.791 755.968 215.732 755.968H215.861V747.426L211.979 746.046C207.837 744.579 205.81 741.689 205.81 737.159C205.81 731.982 209.865 727.798 214.912 727.798H215.905V727.021C215.905 725.252 217.371 723.786 219.14 723.786C220.909 723.786 222.376 725.252 222.376 727.021V727.798H222.505C227.984 727.798 232.47 732.414 232.47 738.065C232.47 739.834 231.004 741.301 229.235 741.301C227.466 741.301 225.999 739.834 225.999 738.065C225.999 735.951 224.446 734.269 222.505 734.269H222.376V742.81L226.258 744.191ZM242.781 768.781C242.134 769.428 241.314 769.73 240.494 769.73C239.675 769.73 238.855 769.428 238.208 768.781C236.957 767.53 236.957 765.459 238.208 764.208C243.298 759.117 246.103 752.344 246.103 745.14C246.103 737.936 243.298 731.163 238.208 726.072C236.957 724.821 236.957 722.75 238.208 721.499C239.459 720.248 241.53 720.248 242.781 721.499C249.079 727.798 252.574 736.21 252.574 745.14C252.574 754.07 249.079 762.482 242.781 768.781Z" fill="#5107AF"/>
<path d="M212.323 737.204C212.323 739.232 212.798 739.491 214.178 739.965L215.947 740.569V734.271H214.955C213.488 734.271 212.323 735.608 212.323 737.204Z" fill="#5107AF"/>
<path d="M212.323 737.204C212.323 739.232 212.798 739.491 214.178 739.965L215.947 740.569V734.271H214.955C213.488 734.271 212.323 735.608 212.323 737.204Z" fill="#5107AF"/>
<path d="M82.9334 715.228L80.2172 721.505H77.501C77.0502 721.505 76.6107 721.538 76.1824 721.628L77.3095 718.943L77.3545 718.842L77.4222 718.663C77.456 718.585 77.4785 718.518 77.5123 718.462C78.8197 715.452 80.2849 714.512 82.9334 715.228Z" fill="#5107AF"/>
<path d="M90.5882 721.804L90.5657 721.793C89.8894 721.603 89.2019 721.502 88.5032 721.502H81.4478L83.9837 715.651L84.0175 715.573C84.1753 715.628 84.3444 715.707 84.5134 715.763L87.0042 716.803C88.3905 717.374 89.3597 717.967 89.9571 718.683C90.0585 718.817 90.1487 718.94 90.2388 719.086C90.3403 719.242 90.4191 719.399 90.4642 719.567C90.5093 719.667 90.5431 719.757 90.5657 719.858C90.7347 720.428 90.746 721.077 90.5882 721.804Z" fill="#5107AF"/>
<path d="M83.5874 732.51H83.8692C84.2073 732.51 84.4891 732.208 84.4891 731.839C84.4891 731.369 84.3538 731.302 84.0608 731.19L83.5874 731.022V732.51Z" fill="#5107AF"/>
<path d="M90.0891 723.405C89.582 723.26 89.0523 723.182 88.5 723.182H77.5C76.7336 723.182 76.0123 723.327 75.3361 723.618C73.375 724.457 72 726.393 72 728.641V730.823C72 731.092 72.0225 731.349 72.0564 731.618C72.3043 735.175 74.2203 737.077 77.8043 737.312C78.0635 737.346 78.3227 737.368 78.6045 737.368H87.3955C91.5656 737.368 93.7633 735.399 93.9775 731.483C93.9887 731.271 94 731.047 94 730.823V728.641C94 726.169 92.3432 724.088 90.0891 723.405ZM84.4426 730.096C84.9611 730.275 85.6598 730.655 85.6598 731.841C85.6598 732.859 84.8596 733.676 83.8678 733.676H83.5861V733.922C83.5861 734.247 83.3269 734.504 83 734.504C82.6732 734.504 82.4139 734.247 82.4139 733.922V733.676H82.3125C81.2305 733.676 80.3402 732.77 80.3402 731.651C80.3402 731.327 80.5994 731.069 80.9262 731.069C81.2531 731.069 81.5123 731.327 81.5123 731.651C81.5123 732.121 81.873 732.513 82.3125 732.513H82.4139V730.622L81.5574 730.32C81.0389 730.141 80.3402 729.76 80.3402 728.574C80.3402 727.556 81.1404 726.739 82.1322 726.739H82.4139V726.493C82.4139 726.169 82.6732 725.911 83 725.911C83.3269 725.911 83.5861 726.169 83.5861 726.493V726.739H83.6875C84.7695 726.739 85.6598 727.646 85.6598 728.765C85.6598 729.089 85.4006 729.346 85.0738 729.346C84.7469 729.346 84.4877 729.089 84.4877 728.765C84.4877 728.295 84.1271 727.903 83.6875 727.903H83.5861V729.794L84.4426 730.096Z" fill="#5107AF"/>
<path d="M81.5139 728.573C81.5139 729.043 81.6491 729.11 81.9422 729.222L82.4155 729.39V727.902H82.1338C81.7844 727.902 81.5139 728.204 81.5139 728.573Z" fill="#5107AF"/>
<path d="M155.933 658.228L153.217 664.505H150.501C150.05 664.505 149.611 664.538 149.182 664.628L150.309 661.943L150.355 661.842L150.422 661.663C150.456 661.585 150.479 661.518 150.512 661.462C151.82 658.452 153.285 657.512 155.933 658.228Z" fill="#5107AF"/>
<path d="M163.588 664.804L163.566 664.793C162.889 664.603 162.202 664.502 161.503 664.502H154.448L156.984 658.651L157.018 658.573C157.175 658.628 157.344 658.707 157.513 658.763L160.004 659.803C161.39 660.374 162.36 660.967 162.957 661.683C163.058 661.817 163.149 661.94 163.239 662.086C163.34 662.242 163.419 662.399 163.464 662.567C163.509 662.667 163.543 662.757 163.566 662.858C163.735 663.428 163.746 664.077 163.588 664.804Z" fill="#5107AF"/>
<path d="M156.587 675.51H156.869C157.207 675.51 157.489 675.208 157.489 674.839C157.489 674.369 157.354 674.302 157.061 674.19L156.587 674.022V675.51Z" fill="#5107AF"/>
<path d="M163.089 666.405C162.582 666.26 162.052 666.182 161.5 666.182H150.5C149.734 666.182 149.012 666.327 148.336 666.618C146.375 667.457 145 669.393 145 671.641V673.823C145 674.092 145.023 674.349 145.056 674.618C145.304 678.175 147.22 680.077 150.804 680.312C151.064 680.346 151.323 680.368 151.605 680.368H160.395C164.566 680.368 166.763 678.399 166.977 674.483C166.989 674.271 167 674.047 167 673.823V671.641C167 669.169 165.343 667.088 163.089 666.405ZM157.443 673.096C157.961 673.275 158.66 673.655 158.66 674.841C158.66 675.859 157.86 676.676 156.868 676.676H156.586V676.922C156.586 677.247 156.327 677.504 156 677.504C155.673 677.504 155.414 677.247 155.414 676.922V676.676H155.313C154.231 676.676 153.34 675.77 153.34 674.651C153.34 674.327 153.599 674.069 153.926 674.069C154.253 674.069 154.512 674.327 154.512 674.651C154.512 675.121 154.873 675.513 155.313 675.513H155.414V673.622L154.557 673.32C154.039 673.141 153.34 672.76 153.34 671.574C153.34 670.556 154.14 669.739 155.132 669.739H155.414V669.493C155.414 669.169 155.673 668.911 156 668.911C156.327 668.911 156.586 669.169 156.586 669.493V669.739H156.688C157.769 669.739 158.66 670.646 158.66 671.765C158.66 672.089 158.401 672.346 158.074 672.346C157.747 672.346 157.488 672.089 157.488 671.765C157.488 671.295 157.127 670.903 156.688 670.903H156.586V672.794L157.443 673.096Z" fill="#5107AF"/>
<path d="M154.514 671.573C154.514 672.043 154.649 672.11 154.942 672.222L155.416 672.39V670.902H155.134C154.784 670.902 154.514 671.204 154.514 671.573Z" fill="#5107AF"/>
<path d="M237.787 610.988H238.489C239.495 610.988 240.349 610.054 240.349 608.902C240.349 607.438 240.014 607.251 239.038 606.909L237.787 606.473V610.988Z" fill="#5107AF"/>
<path d="M237.787 610.988H238.489C239.495 610.988 240.349 610.054 240.349 608.902C240.349 607.438 240.014 607.251 239.038 606.909L237.787 606.473V610.988Z" fill="#5107AF"/>
<path d="M235.5 572C218.664 572 205 585.951 205 603.14C205 620.329 218.664 634.28 235.5 634.28C252.336 634.28 266 620.329 266 603.14C266 585.951 252.336 572 235.5 572ZM222.019 616.904C222.903 617.807 222.903 619.302 222.019 620.205C221.561 620.672 220.982 620.89 220.402 620.89C219.823 620.89 219.243 620.672 218.786 620.205C214.333 615.658 211.862 609.586 211.862 603.14C211.862 596.694 214.333 590.622 218.786 586.075C219.67 585.172 221.134 585.172 222.019 586.075C222.903 586.978 222.903 588.473 222.019 589.376C218.42 593.051 216.437 597.94 216.437 603.14C216.437 608.34 218.42 613.229 222.019 616.904ZM240.532 602.455C243.46 603.514 244.894 605.6 244.894 608.87C244.894 612.607 242.027 615.627 238.459 615.627H237.757V616.188C237.757 617.464 236.72 618.523 235.469 618.523C234.219 618.523 233.182 617.464 233.182 616.188V615.627H233.09C229.217 615.627 226.045 612.295 226.045 608.216C226.045 606.939 227.082 605.88 228.332 605.88C229.583 605.88 230.62 606.939 230.62 608.216C230.62 609.742 231.718 610.956 233.09 610.956H233.182V604.79L230.437 603.794C227.509 602.735 226.075 600.649 226.075 597.379C226.075 593.642 228.942 590.622 232.511 590.622H233.212V590.061C233.212 588.784 234.249 587.726 235.5 587.726C236.75 587.726 237.787 588.784 237.787 590.061V590.622H237.879C241.752 590.622 244.924 593.954 244.924 598.033C244.924 599.31 243.887 600.369 242.637 600.369C241.386 600.369 240.349 599.31 240.349 598.033C240.349 596.507 239.251 595.293 237.879 595.293H237.787V601.458L240.532 602.455ZM252.214 620.205C251.756 620.672 251.177 620.89 250.598 620.89C250.018 620.89 249.438 620.672 248.981 620.205C248.096 619.302 248.096 617.807 248.981 616.904C252.58 613.229 254.562 608.34 254.562 603.14C254.562 597.94 252.58 593.051 248.981 589.376C248.096 588.473 248.096 586.978 248.981 586.075C249.865 585.172 251.329 585.172 252.214 586.075C256.667 590.622 259.137 596.694 259.137 603.14C259.137 609.586 256.667 615.658 252.214 620.205Z" fill="#5107AF"/>
<path d="M235.5 572C218.664 572 205 585.951 205 603.14C205 620.329 218.664 634.28 235.5 634.28C252.336 634.28 266 620.329 266 603.14C266 585.951 252.336 572 235.5 572ZM222.019 616.904C222.903 617.807 222.903 619.302 222.019 620.205C221.561 620.672 220.982 620.89 220.402 620.89C219.823 620.89 219.243 620.672 218.786 620.205C214.333 615.658 211.862 609.586 211.862 603.14C211.862 596.694 214.333 590.622 218.786 586.075C219.67 585.172 221.134 585.172 222.019 586.075C222.903 586.978 222.903 588.473 222.019 589.376C218.42 593.051 216.437 597.94 216.437 603.14C216.437 608.34 218.42 613.229 222.019 616.904ZM240.532 602.455C243.46 603.514 244.894 605.6 244.894 608.87C244.894 612.607 242.027 615.627 238.459 615.627H237.757V616.188C237.757 617.464 236.72 618.523 235.469 618.523C234.219 618.523 233.182 617.464 233.182 616.188V615.627H233.09C229.217 615.627 226.045 612.295 226.045 608.216C226.045 606.939 227.082 605.88 228.332 605.88C229.583 605.88 230.62 606.939 230.62 608.216C230.62 609.742 231.718 610.956 233.09 610.956H233.182V604.79L230.437 603.794C227.509 602.735 226.075 600.649 226.075 597.379C226.075 593.642 228.942 590.622 232.511 590.622H233.212V590.061C233.212 588.784 234.249 587.726 235.5 587.726C236.75 587.726 237.787 588.784 237.787 590.061V590.622H237.879C241.752 590.622 244.924 593.954 244.924 598.033C244.924 599.31 243.887 600.369 242.637 600.369C241.386 600.369 240.349 599.31 240.349 598.033C240.349 596.507 239.251 595.293 237.879 595.293H237.787V601.458L240.532 602.455ZM252.214 620.205C251.756 620.672 251.177 620.89 250.598 620.89C250.018 620.89 249.438 620.672 248.981 620.205C248.096 619.302 248.096 617.807 248.981 616.904C252.58 613.229 254.562 608.34 254.562 603.14C254.562 597.94 252.58 593.051 248.981 589.376C248.096 588.473 248.096 586.978 248.981 586.075C249.865 585.172 251.329 585.172 252.214 586.075C256.667 590.622 259.137 596.694 259.137 603.14C259.137 609.586 256.667 615.658 252.214 620.205Z" fill="#5107AF"/>
<path d="M230.681 597.412C230.681 598.875 231.016 599.062 231.992 599.405L233.243 599.841V595.294H232.541C231.504 595.294 230.681 596.26 230.681 597.412Z" fill="#5107AF"/>
<path d="M230.681 597.412C230.681 598.875 231.016 599.062 231.992 599.405L233.243 599.841V595.294H232.541C231.504 595.294 230.681 596.26 230.681 597.412Z" fill="#5107AF"/>
<path d="M205.14 465C181.327 465 162 484.327 162 508.14C162 531.953 181.327 551.28 205.14 551.28C228.953 551.28 248.28 531.953 248.28 508.14C248.28 484.327 228.953 465 205.14 465ZM186.072 527.208C187.323 528.459 187.323 530.53 186.072 531.781C185.425 532.428 184.605 532.73 183.786 532.73C182.966 532.73 182.146 532.428 181.499 531.781C175.201 525.482 171.707 517.07 171.707 508.14C171.707 499.21 175.201 490.798 181.499 484.499C182.75 483.248 184.821 483.248 186.072 484.499C187.323 485.75 187.323 487.821 186.072 489.072C180.982 494.163 178.178 500.936 178.178 508.14C178.178 515.344 180.982 522.117 186.072 527.208ZM212.258 507.191C216.4 508.658 218.427 511.548 218.427 516.078C218.427 521.255 214.372 525.439 209.325 525.439H208.332V526.216C208.332 527.984 206.866 529.451 205.097 529.451C203.328 529.451 201.861 527.984 201.861 526.216V525.439H201.732C196.253 525.439 191.767 520.823 191.767 515.172C191.767 513.403 193.233 511.936 195.002 511.936C196.771 511.936 198.238 513.403 198.238 515.172C198.238 517.286 199.791 518.968 201.732 518.968H201.861V510.426L197.979 509.046C193.837 507.579 191.81 504.689 191.81 500.159C191.81 494.982 195.865 490.798 200.912 490.798H201.905V490.021C201.905 488.252 203.371 486.786 205.14 486.786C206.909 486.786 208.376 488.252 208.376 490.021V490.798H208.505C213.984 490.798 218.47 495.414 218.47 501.065C218.47 502.834 217.004 504.301 215.235 504.301C213.466 504.301 211.999 502.834 211.999 501.065C211.999 498.951 210.446 497.269 208.505 497.269H208.376V505.81L212.258 507.191ZM228.781 531.781C228.134 532.428 227.314 532.73 226.494 532.73C225.675 532.73 224.855 532.428 224.208 531.781C222.957 530.53 222.957 528.459 224.208 527.208C229.298 522.117 232.103 515.344 232.103 508.14C232.103 500.936 229.298 494.163 224.208 489.072C222.957 487.821 222.957 485.75 224.208 484.499C225.459 483.248 227.53 483.248 228.781 484.499C235.079 490.798 238.574 499.21 238.574 508.14C238.574 517.07 235.079 525.482 228.781 531.781Z" fill="#5107AF"/>
<path d="M205.14 465C181.327 465 162 484.327 162 508.14C162 531.953 181.327 551.28 205.14 551.28C228.953 551.28 248.28 531.953 248.28 508.14C248.28 484.327 228.953 465 205.14 465ZM186.072 527.208C187.323 528.459 187.323 530.53 186.072 531.781C185.425 532.428 184.605 532.73 183.786 532.73C182.966 532.73 182.146 532.428 181.499 531.781C175.201 525.482 171.707 517.07 171.707 508.14C171.707 499.21 175.201 490.798 181.499 484.499C182.75 483.248 184.821 483.248 186.072 484.499C187.323 485.75 187.323 487.821 186.072 489.072C180.982 494.163 178.178 500.936 178.178 508.14C178.178 515.344 180.982 522.117 186.072 527.208ZM212.258 507.191C216.4 508.658 218.427 511.548 218.427 516.078C218.427 521.255 214.372 525.439 209.325 525.439H208.332V526.216C208.332 527.984 206.866 529.451 205.097 529.451C203.328 529.451 201.861 527.984 201.861 526.216V525.439H201.732C196.253 525.439 191.767 520.823 191.767 515.172C191.767 513.403 193.233 511.936 195.002 511.936C196.771 511.936 198.238 513.403 198.238 515.172C198.238 517.286 199.791 518.968 201.732 518.968H201.861V510.426L197.979 509.046C193.837 507.579 191.81 504.689 191.81 500.159C191.81 494.982 195.865 490.798 200.912 490.798H201.905V490.021C201.905 488.252 203.371 486.786 205.14 486.786C206.909 486.786 208.376 488.252 208.376 490.021V490.798H208.505C213.984 490.798 218.47 495.414 218.47 501.065C218.47 502.834 217.004 504.301 215.235 504.301C213.466 504.301 211.999 502.834 211.999 501.065C211.999 498.951 210.446 497.269 208.505 497.269H208.376V505.81L212.258 507.191ZM228.781 531.781C228.134 532.428 227.314 532.73 226.494 532.73C225.675 532.73 224.855 532.428 224.208 531.781C222.957 530.53 222.957 528.459 224.208 527.208C229.298 522.117 232.103 515.344 232.103 508.14C232.103 500.936 229.298 494.163 224.208 489.072C222.957 487.821 222.957 485.75 224.208 484.499C225.459 483.248 227.53 483.248 228.781 484.499C235.079 490.798 238.574 499.21 238.574 508.14C238.574 517.07 235.079 525.482 228.781 531.781Z" fill="#5107AF"/>
<path d="M364.933 177.228L362.217 183.505H359.501C359.05 183.505 358.611 183.538 358.182 183.628L359.309 180.943L359.355 180.842L359.422 180.663C359.456 180.585 359.479 180.518 359.512 180.462C360.82 177.452 362.285 176.512 364.933 177.228Z" fill="#5107AF"/>
<path d="M372.588 183.804L372.566 183.793C371.889 183.603 371.202 183.502 370.503 183.502H363.448L365.984 177.651L366.018 177.573C366.175 177.628 366.344 177.707 366.513 177.763L369.004 178.803C370.39 179.374 371.36 179.967 371.957 180.683C372.059 180.817 372.149 180.94 372.239 181.086C372.34 181.242 372.419 181.399 372.464 181.567C372.509 181.667 372.543 181.757 372.566 181.858C372.735 182.428 372.746 183.077 372.588 183.804Z" fill="#5107AF"/>
<path d="M365.587 194.51H365.869C366.207 194.51 366.489 194.208 366.489 193.839C366.489 193.369 366.354 193.302 366.061 193.19L365.587 193.022V194.51Z" fill="#5107AF"/>
<path d="M372.089 185.405C371.582 185.26 371.052 185.182 370.5 185.182H359.5C358.734 185.182 358.012 185.327 357.336 185.618C355.375 186.457 354 188.393 354 190.641V192.823C354 193.092 354.023 193.349 354.056 193.618C354.304 197.175 356.22 199.077 359.804 199.312C360.064 199.346 360.323 199.368 360.605 199.368H369.395C373.566 199.368 375.763 197.399 375.977 193.483C375.989 193.271 376 193.047 376 192.823V190.641C376 188.169 374.343 186.088 372.089 185.405ZM366.443 192.096C366.961 192.275 367.66 192.655 367.66 193.841C367.66 194.859 366.86 195.676 365.868 195.676H365.586V195.922C365.586 196.247 365.327 196.504 365 196.504C364.673 196.504 364.414 196.247 364.414 195.922V195.676H364.313C363.231 195.676 362.34 194.77 362.34 193.651C362.34 193.327 362.599 193.069 362.926 193.069C363.253 193.069 363.512 193.327 363.512 193.651C363.512 194.121 363.873 194.513 364.313 194.513H364.414V192.622L363.557 192.32C363.039 192.141 362.34 191.76 362.34 190.574C362.34 189.556 363.14 188.739 364.132 188.739H364.414V188.493C364.414 188.169 364.673 187.911 365 187.911C365.327 187.911 365.586 188.169 365.586 188.493V188.739H365.688C366.769 188.739 367.66 189.646 367.66 190.765C367.66 191.089 367.401 191.346 367.074 191.346C366.747 191.346 366.488 191.089 366.488 190.765C366.488 190.295 366.127 189.903 365.688 189.903H365.586V191.794L366.443 192.096Z" fill="#5107AF"/>
<path d="M363.514 190.573C363.514 191.043 363.649 191.11 363.942 191.222L364.415 191.39V189.902H364.134C363.784 189.902 363.514 190.204 363.514 190.573Z" fill="#5107AF"/>
<path d="M181 395.423L181.835 394.872C181.632 394.565 181.278 394.394 180.911 394.427C180.545 394.459 180.226 394.69 180.081 395.029L181 395.423ZM217.5 450.763L216.665 451.313C216.872 451.626 217.236 451.797 217.608 451.757C217.981 451.716 218.299 451.471 218.434 451.121L217.5 450.763ZM390.934 1.3581C391.131 0.842442 390.874 0.264091 390.358 0.066317C389.842 -0.131456 389.264 0.12624 389.066 0.641899L390.934 1.3581ZM1.919 815.394L181.919 395.817L180.081 395.029L0.0809987 814.606L1.919 815.394ZM180.165 395.973L216.665 451.313L218.335 450.212L181.835 394.872L180.165 395.973ZM218.434 451.121L390.934 1.3581L389.066 0.641899L216.566 450.405L218.434 451.121Z" fill="black"/>
</svg>
