<svg width="185" height="759" viewBox="0 0 185 759" fill="none" xmlns="http://www.w3.org/2000/svg">
<path d="M49.0363 724.519H50.0217C51.4355 724.519 52.6351 723.136 52.6351 721.431C52.6351 719.264 52.1638 718.987 50.7928 718.48L49.0363 717.835V724.519Z" fill="#5107AF"/>
<path d="M49.0363 724.519H50.0217C51.4355 724.519 52.6351 723.136 52.6351 721.431C52.6351 719.264 52.1638 718.987 50.7928 718.48L49.0363 717.835V724.519Z" fill="#5107AF"/>
<path d="M45.8229 666.802C22.1733 666.802 2.97937 687.454 2.97937 712.901C2.97937 738.348 22.1733 759 45.8229 759C69.4726 759 88.6665 738.348 88.6665 712.901C88.6665 687.454 69.4726 666.802 45.8229 666.802ZM26.886 733.277C28.1285 734.614 28.1285 736.826 26.886 738.163C26.2434 738.855 25.4294 739.177 24.6153 739.177C23.8013 739.177 22.9873 738.855 22.3446 738.163C16.0895 731.433 12.6192 722.443 12.6192 712.901C12.6192 703.358 16.0895 694.369 22.3446 687.639C23.5871 686.302 25.6436 686.302 26.886 687.639C28.1285 688.975 28.1285 691.188 26.886 692.525C21.8305 697.965 19.0457 705.202 19.0457 712.901C19.0457 720.599 21.8305 727.837 26.886 733.277ZM52.8921 711.887C57.0051 713.454 59.0188 716.543 59.0188 721.383C59.0188 726.915 54.9915 731.387 49.9788 731.387H48.9934V732.216C48.9934 734.106 47.5367 735.674 45.7801 735.674C44.0235 735.674 42.5668 734.106 42.5668 732.216V731.387H42.4383C36.9971 731.387 32.5414 726.454 32.5414 720.415C32.5414 718.525 33.9981 716.958 35.7547 716.958C37.5113 716.958 38.968 718.525 38.968 720.415C38.968 722.674 40.5103 724.472 42.4383 724.472H42.5668V715.344L38.7109 713.869C34.5979 712.302 32.5843 709.213 32.5843 704.373C32.5843 698.841 36.6115 694.369 41.6243 694.369H42.6097V693.539C42.6097 691.649 44.0663 690.082 45.8229 690.082C47.5795 690.082 49.0362 691.649 49.0362 693.539V694.369H49.1647C54.6059 694.369 59.0616 699.302 59.0616 705.341C59.0616 707.231 57.6049 708.798 55.8483 708.798C54.0917 708.798 52.6351 707.231 52.6351 705.341C52.6351 703.082 51.0927 701.284 49.1647 701.284H49.0362V710.412L52.8921 711.887ZM69.3012 738.163C68.6586 738.855 67.8445 739.177 67.0305 739.177C66.2165 739.177 65.4024 738.855 64.7598 738.163C63.5173 736.826 63.5173 734.614 64.7598 733.277C69.8153 727.837 72.6002 720.599 72.6002 712.901C72.6002 705.202 69.8153 697.965 64.7598 692.525C63.5173 691.188 63.5173 688.975 64.7598 687.639C66.0023 686.302 68.0587 686.302 69.3012 687.639C75.5564 694.369 79.0267 703.358 79.0267 712.901C79.0267 722.443 75.5564 731.433 69.3012 738.163Z" fill="#5107AF"/>
<path d="M45.8229 666.802C22.1733 666.802 2.97937 687.454 2.97937 712.901C2.97937 738.348 22.1733 759 45.8229 759C69.4726 759 88.6665 738.348 88.6665 712.901C88.6665 687.454 69.4726 666.802 45.8229 666.802ZM26.886 733.277C28.1285 734.614 28.1285 736.826 26.886 738.163C26.2434 738.855 25.4294 739.177 24.6153 739.177C23.8013 739.177 22.9873 738.855 22.3446 738.163C16.0895 731.433 12.6192 722.443 12.6192 712.901C12.6192 703.358 16.0895 694.369 22.3446 687.639C23.5871 686.302 25.6436 686.302 26.886 687.639C28.1285 688.975 28.1285 691.188 26.886 692.525C21.8305 697.965 19.0457 705.202 19.0457 712.901C19.0457 720.599 21.8305 727.837 26.886 733.277ZM52.8921 711.887C57.0051 713.454 59.0188 716.543 59.0188 721.383C59.0188 726.915 54.9915 731.387 49.9788 731.387H48.9934V732.216C48.9934 734.106 47.5367 735.674 45.7801 735.674C44.0235 735.674 42.5668 734.106 42.5668 732.216V731.387H42.4383C36.9971 731.387 32.5414 726.454 32.5414 720.415C32.5414 718.525 33.9981 716.958 35.7547 716.958C37.5113 716.958 38.968 718.525 38.968 720.415C38.968 722.674 40.5103 724.472 42.4383 724.472H42.5668V715.344L38.7109 713.869C34.5979 712.302 32.5843 709.213 32.5843 704.373C32.5843 698.841 36.6115 694.369 41.6243 694.369H42.6097V693.539C42.6097 691.649 44.0663 690.082 45.8229 690.082C47.5795 690.082 49.0362 691.649 49.0362 693.539V694.369H49.1647C54.6059 694.369 59.0616 699.302 59.0616 705.341C59.0616 707.231 57.6049 708.798 55.8483 708.798C54.0917 708.798 52.6351 707.231 52.6351 705.341C52.6351 703.082 51.0927 701.284 49.1647 701.284H49.0362V710.412L52.8921 711.887ZM69.3012 738.163C68.6586 738.855 67.8445 739.177 67.0305 739.177C66.2165 739.177 65.4024 738.855 64.7598 738.163C63.5173 736.826 63.5173 734.614 64.7598 733.277C69.8153 727.837 72.6002 720.599 72.6002 712.901C72.6002 705.202 69.8153 697.965 64.7598 692.525C63.5173 691.188 63.5173 688.975 64.7598 687.639C66.0023 686.302 68.0587 686.302 69.3012 687.639C75.5564 694.369 79.0267 703.358 79.0267 712.901C79.0267 722.443 75.5564 731.433 69.3012 738.163Z" fill="#5107AF"/>
<path d="M39.0531 704.421C39.0531 706.588 39.5244 706.864 40.8954 707.371L42.652 708.017V701.286H41.6666C40.2099 701.286 39.0531 702.715 39.0531 704.421Z" fill="#5107AF"/>
<path d="M39.0531 704.421C39.0531 706.588 39.5244 706.864 40.8954 707.371L42.652 708.017V701.286H41.6666C40.2099 701.286 39.0531 702.715 39.0531 704.421Z" fill="#5107AF"/>
<path d="M155.102 624.436H155.722C156.612 624.436 157.367 623.582 157.367 622.529C157.367 621.191 157.07 621.02 156.208 620.707L155.102 620.309V624.436Z" fill="#5107AF"/>
<path d="M155.102 624.436H155.722C156.612 624.436 157.367 623.582 157.367 622.529C157.367 621.191 157.07 621.02 156.208 620.707L155.102 620.309V624.436Z" fill="#5107AF"/>
<path d="M153.081 588.795C138.202 588.795 126.127 601.548 126.127 617.262C126.127 632.976 138.202 645.729 153.081 645.729C167.959 645.729 180.034 632.976 180.034 617.262C180.034 601.548 167.959 588.795 153.081 588.795ZM141.167 629.844C141.949 630.67 141.949 632.036 141.167 632.862C140.763 633.289 140.251 633.488 139.739 633.488C139.227 633.488 138.715 633.289 138.31 632.862C134.375 628.706 132.192 623.155 132.192 617.262C132.192 611.369 134.375 605.818 138.31 601.662C139.092 600.836 140.386 600.836 141.167 601.662C141.949 602.487 141.949 603.854 141.167 604.679C137.987 608.038 136.235 612.508 136.235 617.262C136.235 622.016 137.987 626.485 141.167 629.844ZM157.528 616.636C160.116 617.603 161.383 619.511 161.383 622.5C161.383 625.916 158.849 628.677 155.695 628.677H155.075V629.19C155.075 630.357 154.159 631.325 153.054 631.325C151.949 631.325 151.032 630.357 151.032 629.19V628.677H150.952C147.528 628.677 144.725 625.631 144.725 621.902C144.725 620.735 145.642 619.767 146.747 619.767C147.852 619.767 148.768 620.735 148.768 621.902C148.768 623.297 149.739 624.407 150.952 624.407H151.032V618.771L148.607 617.86C146.019 616.892 144.752 614.984 144.752 611.995C144.752 608.579 147.286 605.818 150.439 605.818H151.059V605.306C151.059 604.138 151.976 603.171 153.081 603.171C154.186 603.171 155.102 604.138 155.102 605.306V605.818H155.183C158.606 605.818 161.409 608.864 161.409 612.593C161.409 613.76 160.493 614.728 159.388 614.728C158.283 614.728 157.366 613.76 157.366 612.593C157.366 611.198 156.396 610.088 155.183 610.088H155.102V615.725L157.528 616.636ZM167.851 632.862C167.447 633.289 166.935 633.488 166.423 633.488C165.911 633.488 165.399 633.289 164.994 632.862C164.213 632.036 164.213 630.67 164.994 629.844C168.175 626.485 169.927 622.016 169.927 617.262C169.927 612.508 168.175 608.038 164.994 604.679C164.213 603.854 164.213 602.487 164.994 601.662C165.776 600.836 167.07 600.836 167.851 601.662C171.787 605.818 173.97 611.369 173.97 617.262C173.97 623.155 171.787 628.706 167.851 632.862Z" fill="#5107AF"/>
<path d="M153.081 588.795C138.202 588.795 126.127 601.548 126.127 617.262C126.127 632.976 138.202 645.729 153.081 645.729C167.959 645.729 180.034 632.976 180.034 617.262C180.034 601.548 167.959 588.795 153.081 588.795ZM141.167 629.844C141.949 630.67 141.949 632.036 141.167 632.862C140.763 633.289 140.251 633.488 139.739 633.488C139.227 633.488 138.715 633.289 138.31 632.862C134.375 628.706 132.192 623.155 132.192 617.262C132.192 611.369 134.375 605.818 138.31 601.662C139.092 600.836 140.386 600.836 141.167 601.662C141.949 602.487 141.949 603.854 141.167 604.679C137.987 608.038 136.235 612.508 136.235 617.262C136.235 622.016 137.987 626.485 141.167 629.844ZM157.528 616.636C160.116 617.603 161.383 619.511 161.383 622.5C161.383 625.916 158.849 628.677 155.695 628.677H155.075V629.19C155.075 630.357 154.159 631.325 153.054 631.325C151.949 631.325 151.032 630.357 151.032 629.19V628.677H150.952C147.528 628.677 144.725 625.631 144.725 621.902C144.725 620.735 145.642 619.767 146.747 619.767C147.852 619.767 148.768 620.735 148.768 621.902C148.768 623.297 149.739 624.407 150.952 624.407H151.032V618.771L148.607 617.86C146.019 616.892 144.752 614.984 144.752 611.995C144.752 608.579 147.286 605.818 150.439 605.818H151.059V605.306C151.059 604.138 151.976 603.171 153.081 603.171C154.186 603.171 155.102 604.138 155.102 605.306V605.818H155.183C158.606 605.818 161.409 608.864 161.409 612.593C161.409 613.76 160.493 614.728 159.388 614.728C158.283 614.728 157.366 613.76 157.366 612.593C157.366 611.198 156.396 610.088 155.183 610.088H155.102V615.725L157.528 616.636ZM167.851 632.862C167.447 633.289 166.935 633.488 166.423 633.488C165.911 633.488 165.399 633.289 164.994 632.862C164.213 632.036 164.213 630.67 164.994 629.844C168.175 626.485 169.927 622.016 169.927 617.262C169.927 612.508 168.175 608.038 164.994 604.679C164.213 603.854 164.213 602.487 164.994 601.662C165.776 600.836 167.07 600.836 167.851 601.662C171.787 605.818 173.97 611.369 173.97 617.262C173.97 623.155 171.787 628.706 167.851 632.862Z" fill="#5107AF"/>
<path d="M148.822 612.025C148.822 613.363 149.118 613.534 149.981 613.847L151.086 614.246V610.089H150.466C149.55 610.089 148.822 610.972 148.822 612.025Z" fill="#5107AF"/>
<path d="M148.822 612.025C148.822 613.363 149.118 613.534 149.981 613.847L151.086 614.246V610.089H150.466C149.55 610.089 148.822 610.972 148.822 612.025Z" fill="#5107AF"/>
<path d="M133.861 366.515H134.558C135.558 366.515 136.406 365.516 136.406 364.285C136.406 362.721 136.073 362.522 135.103 362.156L133.861 361.69V366.515Z" fill="#5107AF"/>
<path d="M133.861 366.515H134.558C135.558 366.515 136.406 365.516 136.406 364.285C136.406 362.721 136.073 362.522 135.103 362.156L133.861 361.69V366.515Z" fill="#5107AF"/>
<path d="M131.589 324.852C114.869 324.852 101.299 339.76 101.299 358.128C101.299 376.496 114.869 391.404 131.589 391.404C148.31 391.404 161.88 376.496 161.88 358.128C161.88 339.76 148.31 324.852 131.589 324.852ZM118.201 372.836C119.08 373.801 119.08 375.398 118.201 376.363C117.747 376.863 117.171 377.095 116.596 377.095C116.02 377.095 115.445 376.863 114.99 376.363C110.568 371.505 108.114 365.016 108.114 358.128C108.114 351.24 110.568 344.751 114.99 339.893C115.869 338.928 117.323 338.928 118.201 339.893C119.08 340.858 119.08 342.455 118.201 343.42C114.627 347.347 112.658 352.571 112.658 358.128C112.658 363.685 114.627 368.91 118.201 372.836ZM136.587 357.396C139.495 358.527 140.919 360.757 140.919 364.251C140.919 368.244 138.072 371.472 134.528 371.472H133.831V372.071C133.831 373.435 132.801 374.566 131.559 374.566C130.317 374.566 129.287 373.435 129.287 372.071V371.472H129.197C125.35 371.472 122.199 367.911 122.199 363.552C122.199 362.188 123.229 361.056 124.471 361.056C125.713 361.056 126.743 362.188 126.743 363.552C126.743 365.183 127.833 366.48 129.197 366.48H129.287V359.892L126.561 358.827C123.653 357.696 122.23 355.466 122.23 351.972C122.23 347.979 125.077 344.751 128.621 344.751H129.318V344.152C129.318 342.788 130.348 341.657 131.589 341.657C132.831 341.657 133.861 342.788 133.861 344.152V344.751H133.952C137.799 344.751 140.949 348.312 140.949 352.671C140.949 354.035 139.919 355.167 138.677 355.167C137.436 355.167 136.406 354.035 136.406 352.671C136.406 351.04 135.315 349.743 133.952 349.743H133.861V356.331L136.587 357.396ZM148.189 376.363C147.734 376.863 147.159 377.095 146.583 377.095C146.008 377.095 145.432 376.863 144.978 376.363C144.099 375.398 144.099 373.801 144.978 372.836C148.552 368.91 150.521 363.685 150.521 358.128C150.521 352.571 148.552 347.347 144.978 343.42C144.099 342.455 144.099 340.858 144.978 339.893C145.856 338.928 147.31 338.928 148.189 339.893C152.611 344.751 155.065 351.24 155.065 358.128C155.065 365.016 152.611 371.505 148.189 376.363Z" fill="#5107AF"/>
<path d="M131.589 324.852C114.869 324.852 101.299 339.76 101.299 358.128C101.299 376.496 114.869 391.404 131.589 391.404C148.31 391.404 161.88 376.496 161.88 358.128C161.88 339.76 148.31 324.852 131.589 324.852ZM118.201 372.836C119.08 373.801 119.08 375.398 118.201 376.363C117.747 376.863 117.171 377.095 116.596 377.095C116.02 377.095 115.445 376.863 114.99 376.363C110.568 371.505 108.114 365.016 108.114 358.128C108.114 351.24 110.568 344.751 114.99 339.893C115.869 338.928 117.323 338.928 118.201 339.893C119.08 340.858 119.08 342.455 118.201 343.42C114.627 347.347 112.658 352.571 112.658 358.128C112.658 363.685 114.627 368.91 118.201 372.836ZM136.587 357.396C139.495 358.527 140.919 360.757 140.919 364.251C140.919 368.244 138.072 371.472 134.528 371.472H133.831V372.071C133.831 373.435 132.801 374.566 131.559 374.566C130.317 374.566 129.287 373.435 129.287 372.071V371.472H129.197C125.35 371.472 122.199 367.911 122.199 363.552C122.199 362.188 123.229 361.056 124.471 361.056C125.713 361.056 126.743 362.188 126.743 363.552C126.743 365.183 127.833 366.48 129.197 366.48H129.287V359.892L126.561 358.827C123.653 357.696 122.23 355.466 122.23 351.972C122.23 347.979 125.077 344.751 128.621 344.751H129.318V344.152C129.318 342.788 130.348 341.657 131.589 341.657C132.831 341.657 133.861 342.788 133.861 344.152V344.751H133.952C137.799 344.751 140.949 348.312 140.949 352.671C140.949 354.035 139.919 355.167 138.677 355.167C137.436 355.167 136.406 354.035 136.406 352.671C136.406 351.04 135.315 349.743 133.952 349.743H133.861V356.331L136.587 357.396ZM148.189 376.363C147.734 376.863 147.159 377.095 146.583 377.095C146.008 377.095 145.432 376.863 144.978 376.363C144.099 375.398 144.099 373.801 144.978 372.836C148.552 368.91 150.521 363.685 150.521 358.128C150.521 352.571 148.552 347.347 144.978 343.42C144.099 342.455 144.099 340.858 144.978 339.893C145.856 338.928 147.31 338.928 148.189 339.893C152.611 344.751 155.065 351.24 155.065 358.128C155.065 365.016 152.611 371.505 148.189 376.363Z" fill="#5107AF"/>
<path d="M126.803 352.007C126.803 353.571 127.137 353.771 128.106 354.137L129.348 354.603V349.744H128.651C127.621 349.744 126.803 350.776 126.803 352.007Z" fill="#5107AF"/>
<path d="M126.803 352.007C126.803 353.571 127.137 353.771 128.106 354.137L129.348 354.603V349.744H128.651C127.621 349.744 126.803 350.776 126.803 352.007Z" fill="#5107AF"/>
<path d="M60.9537 257.544H61.9391C63.353 257.544 64.5526 256.161 64.5526 254.456C64.5526 252.289 64.0813 252.012 62.7103 251.505L60.9537 250.86V257.544Z" fill="#5107AF"/>
<path d="M60.9537 257.544H61.9391C63.353 257.544 64.5526 256.161 64.5526 254.456C64.5526 252.289 64.0813 252.012 62.7103 251.505L60.9537 250.86V257.544Z" fill="#5107AF"/>
<path d="M47.1737 227.61C29.3569 227.61 14.897 241.972 14.897 259.668C14.897 277.364 29.3569 291.726 47.1737 291.726C64.9904 291.726 79.4503 277.364 79.4503 259.668C79.4503 241.972 64.9904 227.61 47.1737 227.61ZM32.9073 273.838C33.8434 274.767 33.8434 276.306 32.9073 277.236C32.4232 277.717 31.8099 277.941 31.1967 277.941C30.5834 277.941 29.9702 277.717 29.486 277.236C24.7736 272.555 22.1592 266.304 22.1592 259.668C22.1592 253.032 24.7736 246.781 29.486 242.1C30.422 241.171 31.9713 241.171 32.9073 242.1C33.8434 243.03 33.8434 244.569 32.9073 245.498C29.0987 249.281 27.0007 254.314 27.0007 259.668C27.0007 265.022 29.0987 270.055 32.9073 273.838ZM52.4993 258.963C55.5979 260.053 57.1149 262.201 57.1149 265.567C57.1149 269.414 54.0809 272.523 50.3045 272.523H49.5621V273.1C49.5621 274.415 48.4647 275.505 47.1414 275.505C45.818 275.505 44.7206 274.415 44.7206 273.1V272.523H44.6238C40.5246 272.523 37.1679 269.093 37.1679 264.893C37.1679 263.579 38.2653 262.489 39.5886 262.489C40.912 262.489 42.0094 263.579 42.0094 264.893C42.0094 266.464 43.1713 267.715 44.6238 267.715H44.7206V261.367L41.8157 260.341C38.7172 259.251 37.2002 257.103 37.2002 253.737C37.2002 249.89 40.2341 246.781 44.0105 246.781H44.7529V246.204C44.7529 244.889 45.8503 243.799 47.1737 243.799C48.497 243.799 49.5944 244.889 49.5944 246.204V246.781H49.6912C53.7904 246.781 57.1471 250.211 57.1471 254.411C57.1471 255.725 56.0497 256.815 54.7264 256.815C53.4031 256.815 52.3056 255.725 52.3056 254.411C52.3056 252.84 51.1437 251.589 49.6912 251.589H49.5944V257.937L52.4993 258.963ZM64.8613 277.236C64.3771 277.717 63.7639 277.941 63.1506 277.941C62.5374 277.941 61.9241 277.717 61.4399 277.236C60.5039 276.306 60.5039 274.767 61.4399 273.838C65.2486 270.055 67.3466 265.022 67.3466 259.668C67.3466 254.314 65.2486 249.281 61.4399 245.498C60.5039 244.569 60.5039 243.03 61.4399 242.1C62.376 241.171 63.9252 241.171 64.8613 242.1C69.5737 246.781 72.1881 253.032 72.1881 259.668C72.1881 266.304 69.5737 272.555 64.8613 277.236Z" fill="#5107AF"/>
<path d="M47.1737 227.61C29.3569 227.61 14.897 241.972 14.897 259.668C14.897 277.364 29.3569 291.726 47.1737 291.726C64.9904 291.726 79.4503 277.364 79.4503 259.668C79.4503 241.972 64.9904 227.61 47.1737 227.61ZM32.9073 273.838C33.8434 274.767 33.8434 276.306 32.9073 277.236C32.4232 277.717 31.8099 277.941 31.1967 277.941C30.5834 277.941 29.9702 277.717 29.486 277.236C24.7736 272.555 22.1592 266.304 22.1592 259.668C22.1592 253.032 24.7736 246.781 29.486 242.1C30.422 241.171 31.9713 241.171 32.9073 242.1C33.8434 243.03 33.8434 244.569 32.9073 245.498C29.0987 249.281 27.0007 254.314 27.0007 259.668C27.0007 265.022 29.0987 270.055 32.9073 273.838ZM52.4993 258.963C55.5979 260.053 57.1149 262.201 57.1149 265.567C57.1149 269.414 54.0809 272.523 50.3045 272.523H49.5621V273.1C49.5621 274.415 48.4647 275.505 47.1414 275.505C45.818 275.505 44.7206 274.415 44.7206 273.1V272.523H44.6238C40.5246 272.523 37.1679 269.093 37.1679 264.893C37.1679 263.579 38.2653 262.489 39.5886 262.489C40.912 262.489 42.0094 263.579 42.0094 264.893C42.0094 266.464 43.1713 267.715 44.6238 267.715H44.7206V261.367L41.8157 260.341C38.7172 259.251 37.2002 257.103 37.2002 253.737C37.2002 249.89 40.2341 246.781 44.0105 246.781H44.7529V246.204C44.7529 244.889 45.8503 243.799 47.1737 243.799C48.497 243.799 49.5944 244.889 49.5944 246.204V246.781H49.6912C53.7904 246.781 57.1471 250.211 57.1471 254.411C57.1471 255.725 56.0497 256.815 54.7264 256.815C53.4031 256.815 52.3056 255.725 52.3056 254.411C52.3056 252.84 51.1437 251.589 49.6912 251.589H49.5944V257.937L52.4993 258.963ZM64.8613 277.236C64.3771 277.717 63.7639 277.941 63.1506 277.941C62.5374 277.941 61.9241 277.717 61.4399 277.236C60.5039 276.306 60.5039 274.767 61.4399 273.838C65.2486 270.055 67.3466 265.022 67.3466 259.668C67.3466 254.314 65.2486 249.281 61.4399 245.498C60.5039 244.569 60.5039 243.03 61.4399 242.1C62.376 241.171 63.9252 241.171 64.8613 242.1C69.5737 246.781 72.1881 253.032 72.1881 259.668C72.1881 266.304 69.5737 272.555 64.8613 277.236Z" fill="#5107AF"/>
<path d="M50.9707 237.446C50.9707 239.613 51.442 239.889 52.813 240.396L54.5696 241.042V234.311H53.5842C52.1275 234.311 50.9707 235.74 50.9707 237.446Z" fill="#5107AF"/>
<path d="M50.9707 237.446C50.9707 239.613 51.442 239.889 52.813 240.396L54.5696 241.042V234.311H53.5842C52.1275 234.311 50.9707 235.74 50.9707 237.446Z" fill="#5107AF"/>
<path d="M145.37 131.45H146.355C147.769 131.45 148.968 130.067 148.968 128.362C148.968 126.195 148.497 125.918 147.126 125.411L145.37 124.766V131.45Z" fill="#5107AF"/>
<path d="M145.37 131.45H146.355C147.769 131.45 148.968 130.067 148.968 128.362C148.968 126.195 148.497 125.918 147.126 125.411L145.37 124.766V131.45Z" fill="#5107AF"/>
<path d="M142.156 73.7329C118.507 73.7329 99.3129 94.3853 99.3129 119.832C99.3129 145.279 118.507 165.931 142.156 165.931C165.806 165.931 185 145.279 185 119.832C185 94.3853 165.806 73.7329 142.156 73.7329ZM123.22 140.208C124.462 141.545 124.462 143.757 123.22 145.094C122.577 145.786 121.763 146.108 120.949 146.108C120.135 146.108 119.321 145.786 118.678 145.094C112.423 138.364 108.953 129.375 108.953 119.832C108.953 110.289 112.423 101.3 118.678 94.5697C119.921 93.2328 121.977 93.2328 123.22 94.5697C124.462 95.9066 124.462 98.1193 123.22 99.4562C118.164 104.896 115.379 112.133 115.379 119.832C115.379 127.531 118.164 134.768 123.22 140.208ZM149.226 118.818C153.339 120.385 155.352 123.474 155.352 128.314C155.352 133.846 151.325 138.318 146.312 138.318H145.327V139.148C145.327 141.038 143.87 142.605 142.114 142.605C140.357 142.605 138.9 141.038 138.9 139.148V138.318H138.772C133.331 138.318 128.875 133.385 128.875 127.346C128.875 125.456 130.332 123.889 132.088 123.889C133.845 123.889 135.301 125.456 135.301 127.346C135.301 129.605 136.844 131.403 138.772 131.403H138.9V122.275L135.044 120.8C130.931 119.233 128.918 116.144 128.918 111.304C128.918 105.772 132.945 101.3 137.958 101.3H138.943V100.47C138.943 98.5803 140.4 97.0129 142.156 97.0129C143.913 97.0129 145.37 98.5803 145.37 100.47V101.3H145.498C150.939 101.3 155.395 106.233 155.395 112.272C155.395 114.162 153.938 115.729 152.182 115.729C150.425 115.729 148.969 114.162 148.969 112.272C148.969 110.013 147.426 108.215 145.498 108.215H145.37V117.343L149.226 118.818ZM165.635 145.094C164.992 145.786 164.178 146.108 163.364 146.108C162.55 146.108 161.736 145.786 161.093 145.094C159.851 143.757 159.851 141.545 161.093 140.208C166.149 134.768 168.934 127.531 168.934 119.832C168.934 112.133 166.149 104.896 161.093 99.4562C159.851 98.1193 159.851 95.9066 161.093 94.5697C162.336 93.2328 164.392 93.2328 165.635 94.5697C171.89 101.3 175.36 110.289 175.36 119.832C175.36 129.375 171.89 138.364 165.635 145.094Z" fill="#5107AF"/>
<path d="M142.156 73.7329C118.507 73.7329 99.3129 94.3853 99.3129 119.832C99.3129 145.279 118.507 165.931 142.156 165.931C165.806 165.931 185 145.279 185 119.832C185 94.3853 165.806 73.7329 142.156 73.7329ZM123.22 140.208C124.462 141.545 124.462 143.757 123.22 145.094C122.577 145.786 121.763 146.108 120.949 146.108C120.135 146.108 119.321 145.786 118.678 145.094C112.423 138.364 108.953 129.375 108.953 119.832C108.953 110.289 112.423 101.3 118.678 94.5697C119.921 93.2328 121.977 93.2328 123.22 94.5697C124.462 95.9066 124.462 98.1193 123.22 99.4562C118.164 104.896 115.379 112.133 115.379 119.832C115.379 127.531 118.164 134.768 123.22 140.208ZM149.226 118.818C153.339 120.385 155.352 123.474 155.352 128.314C155.352 133.846 151.325 138.318 146.312 138.318H145.327V139.148C145.327 141.038 143.87 142.605 142.114 142.605C140.357 142.605 138.9 141.038 138.9 139.148V138.318H138.772C133.331 138.318 128.875 133.385 128.875 127.346C128.875 125.456 130.332 123.889 132.088 123.889C133.845 123.889 135.301 125.456 135.301 127.346C135.301 129.605 136.844 131.403 138.772 131.403H138.9V122.275L135.044 120.8C130.931 119.233 128.918 116.144 128.918 111.304C128.918 105.772 132.945 101.3 137.958 101.3H138.943V100.47C138.943 98.5803 140.4 97.0129 142.156 97.0129C143.913 97.0129 145.37 98.5803 145.37 100.47V101.3H145.498C150.939 101.3 155.395 106.233 155.395 112.272C155.395 114.162 153.938 115.729 152.182 115.729C150.425 115.729 148.969 114.162 148.969 112.272C148.969 110.013 147.426 108.215 145.498 108.215H145.37V117.343L149.226 118.818ZM165.635 145.094C164.992 145.786 164.178 146.108 163.364 146.108C162.55 146.108 161.736 145.786 161.093 145.094C159.851 143.757 159.851 141.545 161.093 140.208C166.149 134.768 168.934 127.531 168.934 119.832C168.934 112.133 166.149 104.896 161.093 99.4562C159.851 98.1193 159.851 95.9066 161.093 94.5697C162.336 93.2328 164.392 93.2328 165.635 94.5697C171.89 101.3 175.36 110.289 175.36 119.832C175.36 129.375 171.89 138.364 165.635 145.094Z" fill="#5107AF"/>
<path d="M135.387 111.352C135.387 113.519 135.858 113.795 137.229 114.302L138.985 114.948V108.217H138C136.543 108.217 135.387 109.646 135.387 111.352Z" fill="#5107AF"/>
<path d="M135.387 111.352C135.387 113.519 135.858 113.795 137.229 114.302L138.985 114.948V108.217H138C136.543 108.217 135.387 109.646 135.387 111.352Z" fill="#5107AF"/>
<path d="M46.0569 57.7174H47.0423C48.4561 57.7174 49.6557 56.3345 49.6557 54.6288C49.6557 52.4622 49.1845 52.1856 47.8135 51.6785L46.0569 51.0331V57.7174Z" fill="#5107AF"/>
<path d="M46.0569 57.7174H47.0423C48.4561 57.7174 49.6557 56.3345 49.6557 54.6288C49.6557 52.4622 49.1845 52.1856 47.8135 51.6785L46.0569 51.0331V57.7174Z" fill="#5107AF"/>
<path d="M42.8436 0C19.1939 0 0 20.6524 0 46.0991C0 71.5458 19.1939 92.1982 42.8436 92.1982C66.4932 92.1982 85.6871 71.5458 85.6871 46.0991C85.6871 20.6524 66.4932 0 42.8436 0ZM23.9067 66.4749C25.1491 67.8118 25.1491 70.0245 23.9067 71.3614C23.264 72.0529 22.45 72.3756 21.636 72.3756C20.8219 72.3756 20.0079 72.0529 19.3652 71.3614C13.1101 64.6309 9.6398 55.6416 9.6398 46.0991C9.6398 36.5566 13.1101 27.5673 19.3652 20.8368C20.6077 19.4999 22.6642 19.4999 23.9067 20.8368C25.1491 22.1737 25.1491 24.3864 23.9067 25.7233C18.8511 31.163 16.0663 38.4005 16.0663 46.0991C16.0663 53.7976 18.8511 61.0352 23.9067 66.4749ZM49.9128 45.0849C54.0257 46.6523 56.0394 49.7409 56.0394 54.5813C56.0394 60.1132 52.0121 64.5848 46.9994 64.5848H46.014V65.4146C46.014 67.3047 44.5573 68.872 42.8007 68.872C41.0441 68.872 39.5875 67.3047 39.5875 65.4146V64.5848H39.4589C34.0177 64.5848 29.562 59.6522 29.562 53.6132C29.562 51.7232 31.0187 50.1558 32.7753 50.1558C34.5319 50.1558 35.9886 51.7232 35.9886 53.6132C35.9886 55.8721 37.531 57.67 39.4589 57.67H39.5875V48.5423L35.7315 47.0672C31.6186 45.4998 29.6049 42.4112 29.6049 37.5708C29.6049 32.0389 33.6322 27.5673 38.6449 27.5673H39.6303V26.7375C39.6303 24.8474 41.087 23.28 42.8436 23.28C44.6002 23.28 46.0568 24.8474 46.0568 26.7375V27.5673H46.1854C51.6265 27.5673 56.0822 32.4999 56.0822 38.5388C56.0822 40.4289 54.6255 41.9963 52.869 41.9963C51.1124 41.9963 49.6557 40.4289 49.6557 38.5388C49.6557 36.28 48.1133 34.4821 46.1854 34.4821H46.0568V43.6097L49.9128 45.0849ZM66.3218 71.3614C65.6792 72.0529 64.8652 72.3756 64.0511 72.3756C63.2371 72.3756 62.4231 72.0529 61.7804 71.3614C60.538 70.0245 60.538 67.8118 61.7804 66.4749C66.836 61.0352 69.6208 53.7976 69.6208 46.0991C69.6208 38.4005 66.836 31.163 61.7804 25.7233C60.538 24.3864 60.538 22.1737 61.7804 20.8368C63.0229 19.4999 65.0794 19.4999 66.3218 20.8368C72.577 27.5673 76.0473 36.5566 76.0473 46.0991C76.0473 55.6416 72.577 64.6309 66.3218 71.3614Z" fill="#5107AF"/>
<path d="M42.8436 0C19.1939 0 0 20.6524 0 46.0991C0 71.5458 19.1939 92.1982 42.8436 92.1982C66.4932 92.1982 85.6871 71.5458 85.6871 46.0991C85.6871 20.6524 66.4932 0 42.8436 0ZM23.9067 66.4749C25.1491 67.8118 25.1491 70.0245 23.9067 71.3614C23.264 72.0529 22.45 72.3756 21.636 72.3756C20.8219 72.3756 20.0079 72.0529 19.3652 71.3614C13.1101 64.6309 9.6398 55.6416 9.6398 46.0991C9.6398 36.5566 13.1101 27.5673 19.3652 20.8368C20.6077 19.4999 22.6642 19.4999 23.9067 20.8368C25.1491 22.1737 25.1491 24.3864 23.9067 25.7233C18.8511 31.163 16.0663 38.4005 16.0663 46.0991C16.0663 53.7976 18.8511 61.0352 23.9067 66.4749ZM49.9128 45.0849C54.0257 46.6523 56.0394 49.7409 56.0394 54.5813C56.0394 60.1132 52.0121 64.5848 46.9994 64.5848H46.014V65.4146C46.014 67.3047 44.5573 68.872 42.8007 68.872C41.0441 68.872 39.5875 67.3047 39.5875 65.4146V64.5848H39.4589C34.0177 64.5848 29.562 59.6522 29.562 53.6132C29.562 51.7232 31.0187 50.1558 32.7753 50.1558C34.5319 50.1558 35.9886 51.7232 35.9886 53.6132C35.9886 55.8721 37.531 57.67 39.4589 57.67H39.5875V48.5423L35.7315 47.0672C31.6186 45.4998 29.6049 42.4112 29.6049 37.5708C29.6049 32.0389 33.6322 27.5673 38.6449 27.5673H39.6303V26.7375C39.6303 24.8474 41.087 23.28 42.8436 23.28C44.6002 23.28 46.0568 24.8474 46.0568 26.7375V27.5673H46.1854C51.6265 27.5673 56.0822 32.4999 56.0822 38.5388C56.0822 40.4289 54.6255 41.9963 52.869 41.9963C51.1124 41.9963 49.6557 40.4289 49.6557 38.5388C49.6557 36.28 48.1133 34.4821 46.1854 34.4821H46.0568V43.6097L49.9128 45.0849ZM66.3218 71.3614C65.6792 72.0529 64.8652 72.3756 64.0511 72.3756C63.2371 72.3756 62.4231 72.0529 61.7804 71.3614C60.538 70.0245 60.538 67.8118 61.7804 66.4749C66.836 61.0352 69.6208 53.7976 69.6208 46.0991C69.6208 38.4005 66.836 31.163 61.7804 25.7233C60.538 24.3864 60.538 22.1737 61.7804 20.8368C63.0229 19.4999 65.0794 19.4999 66.3218 20.8368C72.577 27.5673 76.0473 36.5566 76.0473 46.0991C76.0473 55.6416 72.577 64.6309 66.3218 71.3614Z" fill="#5107AF"/>
<path d="M36.0737 37.6192C36.0737 39.7858 36.545 40.0624 37.916 40.5695L39.6726 41.2149V34.4843H38.6872C37.2305 34.4843 36.0737 35.9134 36.0737 37.6192Z" fill="#5107AF"/>
<path d="M36.0737 37.6192C36.0737 39.7858 36.545 40.0624 37.916 40.5695L39.6726 41.2149V34.4843H38.6872C37.2305 34.4843 36.0737 35.9134 36.0737 37.6192Z" fill="#5107AF"/>
<path d="M60.9537 496.909H61.9391C63.353 496.909 64.5526 495.526 64.5526 493.82C64.5526 491.654 64.0813 491.377 62.7103 490.87L60.9537 490.225V496.909Z" fill="#5107AF"/>
<path d="M60.9537 496.909H61.9391C63.353 496.909 64.5526 495.526 64.5526 493.82C64.5526 491.654 64.0813 491.377 62.7103 490.87L60.9537 490.225V496.909Z" fill="#5107AF"/>
<path d="M57.7405 439.192C34.0909 439.192 14.897 459.844 14.897 485.291C14.897 510.737 34.0909 531.39 57.7405 531.39C81.3902 531.39 100.584 510.737 100.584 485.291C100.584 459.844 81.3902 439.192 57.7405 439.192ZM38.8036 505.666C40.0461 507.003 40.0461 509.216 38.8036 510.553C38.161 511.244 37.347 511.567 36.5329 511.567C35.7189 511.567 34.9049 511.244 34.2622 510.553C28.0071 503.822 24.5368 494.833 24.5368 485.291C24.5368 475.748 28.0071 466.759 34.2622 460.028C35.5047 458.691 37.5612 458.691 38.8036 460.028C40.0461 461.365 40.0461 463.578 38.8036 464.915C33.7481 470.355 30.9633 477.592 30.9633 485.291C30.9633 492.989 33.7481 500.227 38.8036 505.666ZM64.8097 484.276C68.9227 485.844 70.9364 488.932 70.9364 493.773C70.9364 499.305 66.9091 503.776 61.8964 503.776H60.911V504.606C60.911 506.496 59.4543 508.064 57.6977 508.064C55.9411 508.064 54.4844 506.496 54.4844 504.606V503.776H54.3559C48.9147 503.776 44.459 498.844 44.459 492.805C44.459 490.915 45.9157 489.347 47.6723 489.347C49.4289 489.347 50.8856 490.915 50.8856 492.805C50.8856 495.064 52.4279 496.862 54.3559 496.862H54.4844V487.734L50.6285 486.259C46.5155 484.691 44.5019 481.603 44.5019 476.762C44.5019 471.23 48.5291 466.759 53.5419 466.759H54.5273V465.929C54.5273 464.039 55.984 462.472 57.7405 462.472C59.4971 462.472 60.9538 464.039 60.9538 465.929V466.759H61.0823C66.5235 466.759 70.9792 471.691 70.9792 477.73C70.9792 479.62 69.5225 481.188 67.7659 481.188C66.0093 481.188 64.5527 479.62 64.5527 477.73C64.5527 475.472 63.0103 473.674 61.0823 473.674H60.9538V482.801L64.8097 484.276ZM81.2188 510.553C80.5762 511.244 79.7621 511.567 78.9481 511.567C78.1341 511.567 77.32 511.244 76.6774 510.553C75.4349 509.216 75.4349 507.003 76.6774 505.666C81.7329 500.227 84.5178 492.989 84.5178 485.291C84.5178 477.592 81.7329 470.355 76.6774 464.915C75.4349 463.578 75.4349 461.365 76.6774 460.028C77.9199 458.691 79.9763 458.691 81.2188 460.028C87.474 466.759 90.9443 475.748 90.9443 485.291C90.9443 494.833 87.474 503.822 81.2188 510.553Z" fill="#5107AF"/>
<path d="M57.7405 439.192C34.0909 439.192 14.897 459.844 14.897 485.291C14.897 510.737 34.0909 531.39 57.7405 531.39C81.3902 531.39 100.584 510.737 100.584 485.291C100.584 459.844 81.3902 439.192 57.7405 439.192ZM38.8036 505.666C40.0461 507.003 40.0461 509.216 38.8036 510.553C38.161 511.244 37.347 511.567 36.5329 511.567C35.7189 511.567 34.9049 511.244 34.2622 510.553C28.0071 503.822 24.5368 494.833 24.5368 485.291C24.5368 475.748 28.0071 466.759 34.2622 460.028C35.5047 458.691 37.5612 458.691 38.8036 460.028C40.0461 461.365 40.0461 463.578 38.8036 464.915C33.7481 470.355 30.9633 477.592 30.9633 485.291C30.9633 492.989 33.7481 500.227 38.8036 505.666ZM64.8097 484.276C68.9227 485.844 70.9364 488.932 70.9364 493.773C70.9364 499.305 66.9091 503.776 61.8964 503.776H60.911V504.606C60.911 506.496 59.4543 508.064 57.6977 508.064C55.9411 508.064 54.4844 506.496 54.4844 504.606V503.776H54.3559C48.9147 503.776 44.459 498.844 44.459 492.805C44.459 490.915 45.9157 489.347 47.6723 489.347C49.4289 489.347 50.8856 490.915 50.8856 492.805C50.8856 495.064 52.4279 496.862 54.3559 496.862H54.4844V487.734L50.6285 486.259C46.5155 484.691 44.5019 481.603 44.5019 476.762C44.5019 471.23 48.5291 466.759 53.5419 466.759H54.5273V465.929C54.5273 464.039 55.984 462.472 57.7405 462.472C59.4971 462.472 60.9538 464.039 60.9538 465.929V466.759H61.0823C66.5235 466.759 70.9792 471.691 70.9792 477.73C70.9792 479.62 69.5225 481.188 67.7659 481.188C66.0093 481.188 64.5527 479.62 64.5527 477.73C64.5527 475.472 63.0103 473.674 61.0823 473.674H60.9538V482.801L64.8097 484.276ZM81.2188 510.553C80.5762 511.244 79.7621 511.567 78.9481 511.567C78.1341 511.567 77.32 511.244 76.6774 510.553C75.4349 509.216 75.4349 507.003 76.6774 505.666C81.7329 500.227 84.5178 492.989 84.5178 485.291C84.5178 477.592 81.7329 470.355 76.6774 464.915C75.4349 463.578 75.4349 461.365 76.6774 460.028C77.9199 458.691 79.9763 458.691 81.2188 460.028C87.474 466.759 90.9443 475.748 90.9443 485.291C90.9443 494.833 87.474 503.822 81.2188 510.553Z" fill="#5107AF"/>
<path d="M50.9707 476.811C50.9707 478.977 51.442 479.254 52.813 479.761L54.5696 480.406V473.676H53.5842C52.1275 473.676 50.9707 475.105 50.9707 476.811Z" fill="#5107AF"/>
<path d="M50.9707 476.811C50.9707 478.977 51.442 479.254 52.813 479.761L54.5696 480.406V473.676H53.5842C52.1275 473.676 50.9707 475.105 50.9707 476.811Z" fill="#5107AF"/>
<path d="M20.7896 574.078L18.0921 580.785H15.3945C14.9468 580.785 14.5103 580.821 14.085 580.917L15.2043 578.047L15.249 577.94L15.3162 577.749C15.3498 577.665 15.3722 577.593 15.4057 577.533C16.7041 574.317 18.1592 573.313 20.7896 574.078Z" fill="#5107AF"/>
<path d="M28.3918 581.105L28.3694 581.093C27.6978 580.89 27.015 580.783 26.321 580.783H19.3142L21.8326 574.53L21.8662 574.446C22.0229 574.506 22.1908 574.59 22.3587 574.649L24.8324 575.761C26.2091 576.371 27.1717 577.005 27.765 577.77C27.8657 577.913 27.9552 578.045 28.0448 578.2C28.1455 578.368 28.2239 578.535 28.2686 578.714C28.3134 578.822 28.347 578.918 28.3694 579.025C28.5373 579.635 28.5485 580.328 28.3918 581.105Z" fill="#5107AF"/>
<path d="M21.4391 592.545H21.7189C22.0547 592.545 22.3345 592.223 22.3345 591.828C22.3345 591.326 22.2002 591.254 21.9092 591.135L21.4391 590.955V592.545Z" fill="#5107AF"/>
<path d="M27.8961 582.816C27.3924 582.661 26.8664 582.577 26.3179 582.577H15.3935C14.6323 582.577 13.916 582.732 13.2444 583.043C11.2968 583.94 9.93127 586.008 9.93127 588.411V590.743C9.93127 591.03 9.95366 591.305 9.98724 591.592C10.2335 595.394 12.1363 597.426 15.6957 597.677C15.9531 597.713 16.2106 597.737 16.4904 597.737H25.221C29.3624 597.737 31.5451 595.633 31.7577 591.448C31.7689 591.221 31.7801 590.982 31.7801 590.743V588.411C31.7801 585.769 30.1347 583.545 27.8961 582.816ZM22.2884 589.966C22.8033 590.157 23.4973 590.563 23.4973 591.831C23.4973 592.919 22.7026 593.791 21.7176 593.791H21.4377V594.054C21.4377 594.401 21.1803 594.676 20.8557 594.676C20.5311 594.676 20.2737 594.401 20.2737 594.054V593.791H20.1729C19.0984 593.791 18.2141 592.823 18.2141 591.627C18.2141 591.281 18.4716 591.006 18.7962 591.006C19.1208 591.006 19.3782 591.281 19.3782 591.627C19.3782 592.13 19.7364 592.548 20.1729 592.548H20.2737V590.528L19.423 590.205C18.9081 590.013 18.2141 589.607 18.2141 588.34C18.2141 587.252 19.0088 586.379 19.9938 586.379H20.2737V586.116C20.2737 585.769 20.5311 585.494 20.8557 585.494C21.1803 585.494 21.4377 585.769 21.4377 586.116V586.379H21.5385C22.613 586.379 23.4973 587.347 23.4973 588.543C23.4973 588.89 23.2398 589.165 22.9152 589.165C22.5906 589.165 22.3332 588.89 22.3332 588.543C22.3332 588.041 21.975 587.622 21.5385 587.622H21.4377V589.643L22.2884 589.966Z" fill="#5107AF"/>
<path d="M19.3799 588.338C19.3799 588.84 19.5142 588.912 19.8052 589.032L20.2753 589.211V587.621H19.9955C19.6485 587.621 19.3799 587.944 19.3799 588.338Z" fill="#5107AF"/>
<path d="M86.3361 537.746L83.6386 544.453H80.9411C80.4933 544.453 80.0568 544.489 79.6315 544.585L80.7508 541.715L80.7955 541.608L80.8627 541.416C80.8963 541.333 80.9187 541.261 80.9522 541.201C82.2506 537.985 83.7057 536.981 86.3361 537.746Z" fill="#5107AF"/>
<path d="M93.9383 544.773L93.9159 544.761C93.2443 544.558 92.5615 544.45 91.8676 544.45H84.8607L87.3792 538.198L87.4127 538.114C87.5694 538.174 87.7373 538.257 87.9052 538.317L90.3789 539.429C91.7556 540.039 92.7182 540.672 93.3115 541.438C93.4122 541.581 93.5017 541.713 93.5913 541.868C93.692 542.035 93.7704 542.203 93.8151 542.382C93.8599 542.49 93.8935 542.585 93.9159 542.693C94.0838 543.303 94.095 543.996 93.9383 544.773Z" fill="#5107AF"/>
<path d="M86.9856 556.213H87.2654C87.6012 556.213 87.881 555.89 87.881 555.496C87.881 554.994 87.7467 554.922 87.4557 554.802L86.9856 554.623V556.213Z" fill="#5107AF"/>
<path d="M93.4426 546.484C92.9389 546.328 92.4129 546.245 91.8644 546.245H80.94C80.1789 546.245 79.4625 546.4 78.7909 546.711C76.8433 547.608 75.4778 549.676 75.4778 552.079V554.411C75.4778 554.698 75.5002 554.973 75.5337 555.259C75.78 559.061 77.6828 561.094 81.2422 561.345C81.4996 561.381 81.7571 561.405 82.0369 561.405H90.7675C94.9089 561.405 97.0916 559.301 97.3042 555.116C97.3154 554.889 97.3266 554.65 97.3266 554.411V552.079C97.3266 549.437 95.6812 547.213 93.4426 546.484ZM87.8349 553.633C88.3498 553.825 89.0438 554.231 89.0438 555.499C89.0438 556.587 88.2491 557.459 87.2641 557.459H86.9842V557.722C86.9842 558.069 86.7268 558.344 86.4022 558.344C86.0776 558.344 85.8202 558.069 85.8202 557.722V557.459H85.7194C84.6449 557.459 83.7606 556.491 83.7606 555.295C83.7606 554.949 84.0181 554.674 84.3427 554.674C84.6673 554.674 84.9247 554.949 84.9247 555.295C84.9247 555.797 85.2829 556.216 85.7194 556.216H85.8202V554.195L84.9695 553.873C84.4546 553.681 83.7606 553.275 83.7606 552.007C83.7606 550.919 84.5554 550.047 85.5403 550.047H85.8202V549.784C85.8202 549.437 86.0776 549.162 86.4022 549.162C86.7268 549.162 86.9842 549.437 86.9842 549.784V550.047H87.085C88.1595 550.047 89.0438 551.015 89.0438 552.211C89.0438 552.557 88.7863 552.832 88.4617 552.832C88.1371 552.832 87.8797 552.557 87.8797 552.211C87.8797 551.709 87.5215 551.29 87.085 551.29H86.9842V553.311L87.8349 553.633Z" fill="#5107AF"/>
<path d="M84.9263 552.006C84.9263 552.508 85.0606 552.58 85.3516 552.699L85.8217 552.879V551.289H85.5419C85.1949 551.289 84.9263 551.612 84.9263 552.006Z" fill="#5107AF"/>
<path d="M158.834 476.836L156.137 483.543H153.439C152.992 483.543 152.555 483.579 152.13 483.675L153.249 480.806L153.294 480.698L153.361 480.507C153.395 480.423 153.417 480.351 153.451 480.291C154.749 477.075 156.204 476.071 158.834 476.836Z" fill="#5107AF"/>
<path d="M166.437 483.864L166.414 483.852C165.743 483.648 165.06 483.541 164.366 483.541H157.359L159.878 477.288L159.911 477.204C160.068 477.264 160.236 477.348 160.404 477.407L162.877 478.519C164.254 479.129 165.217 479.763 165.81 480.528C165.911 480.671 166 480.803 166.09 480.958C166.19 481.126 166.269 481.293 166.314 481.472C166.358 481.58 166.392 481.676 166.414 481.783C166.582 482.393 166.593 483.086 166.437 483.864Z" fill="#5107AF"/>
<path d="M159.484 495.304H159.764C160.1 495.304 160.379 494.981 160.379 494.586C160.379 494.084 160.245 494.012 159.954 493.893L159.484 493.713V495.304Z" fill="#5107AF"/>
<path d="M165.941 485.574C165.437 485.419 164.911 485.335 164.363 485.335H153.438C152.677 485.335 151.961 485.49 151.289 485.801C149.342 486.698 147.976 488.766 147.976 491.169V493.501C147.976 493.788 147.999 494.063 148.032 494.35C148.278 498.152 150.181 500.184 153.741 500.435C153.998 500.471 154.255 500.495 154.535 500.495H163.266C167.407 500.495 169.59 498.391 169.803 494.206C169.814 493.979 169.825 493.74 169.825 493.501V491.169C169.825 488.527 168.18 486.303 165.941 485.574ZM160.333 492.724C160.848 492.915 161.542 493.321 161.542 494.589C161.542 495.677 160.747 496.55 159.762 496.55H159.483V496.813C159.483 497.159 159.225 497.434 158.901 497.434C158.576 497.434 158.319 497.159 158.319 496.813V496.55H158.218C157.143 496.55 156.259 495.581 156.259 494.386C156.259 494.039 156.516 493.764 156.841 493.764C157.166 493.764 157.423 494.039 157.423 494.386C157.423 494.888 157.781 495.306 158.218 495.306H158.319V493.286L157.468 492.963C156.953 492.771 156.259 492.365 156.259 491.098C156.259 490.01 157.054 489.137 158.039 489.137H158.319V488.874C158.319 488.527 158.576 488.252 158.901 488.252C159.225 488.252 159.483 488.527 159.483 488.874V489.137H159.583C160.658 489.137 161.542 490.105 161.542 491.301C161.542 491.648 161.285 491.923 160.96 491.923C160.636 491.923 160.378 491.648 160.378 491.301C160.378 490.799 160.02 490.38 159.583 490.38H159.483V492.401L160.333 492.724Z" fill="#5107AF"/>
<path d="M157.425 491.096C157.425 491.598 157.559 491.67 157.85 491.79L158.32 491.969V490.379H158.04C157.693 490.379 157.425 490.702 157.425 491.096Z" fill="#5107AF"/>
<path d="M123.082 415.926L120.384 422.634H117.687C117.239 422.634 116.803 422.669 116.377 422.765L117.497 419.896L117.541 419.788L117.608 419.597C117.642 419.513 117.664 419.441 117.698 419.382C118.996 416.166 120.451 415.161 123.082 415.926Z" fill="#5107AF"/>
<path d="M130.684 422.954L130.662 422.942C129.99 422.739 129.307 422.631 128.613 422.631H121.606L124.125 416.378L124.158 416.294C124.315 416.354 124.483 416.438 124.651 416.498L127.125 417.609C128.501 418.219 129.464 418.853 130.057 419.618C130.158 419.762 130.247 419.893 130.337 420.048C130.438 420.216 130.516 420.383 130.561 420.563C130.606 420.67 130.639 420.766 130.662 420.873C130.83 421.483 130.841 422.177 130.684 422.954Z" fill="#5107AF"/>
<path d="M123.731 434.394H124.011C124.347 434.394 124.627 434.071 124.627 433.676C124.627 433.174 124.492 433.102 124.201 432.983L123.731 432.804V434.394Z" fill="#5107AF"/>
<path d="M130.188 424.664C129.685 424.509 129.159 424.425 128.61 424.425H117.686C116.925 424.425 116.208 424.581 115.537 424.891C113.589 425.788 112.224 427.857 112.224 430.26V432.591C112.224 432.878 112.246 433.153 112.279 433.44C112.526 437.242 114.429 439.274 117.988 439.525C118.245 439.561 118.503 439.585 118.783 439.585H127.513C131.655 439.585 133.837 437.481 134.05 433.296C134.061 433.069 134.072 432.83 134.072 432.591V430.26C134.072 427.617 132.427 425.394 130.188 424.664ZM124.581 431.814C125.096 432.005 125.789 432.412 125.789 433.679C125.789 434.767 124.995 435.64 124.01 435.64H123.73V435.903C123.73 436.249 123.473 436.524 123.148 436.524C122.823 436.524 122.566 436.249 122.566 435.903V435.64H122.465C121.391 435.64 120.506 434.671 120.506 433.476C120.506 433.129 120.764 432.854 121.088 432.854C121.413 432.854 121.67 433.129 121.67 433.476C121.67 433.978 122.029 434.396 122.465 434.396H122.566V432.376L121.715 432.053C121.2 431.862 120.506 431.455 120.506 430.188C120.506 429.1 121.301 428.227 122.286 428.227H122.566V427.964C122.566 427.617 122.823 427.342 123.148 427.342C123.473 427.342 123.73 427.617 123.73 427.964V428.227H123.831C124.905 428.227 125.789 429.196 125.789 430.391C125.789 430.738 125.532 431.013 125.207 431.013C124.883 431.013 124.625 430.738 124.625 430.391C124.625 429.889 124.267 429.471 123.831 429.471H123.73V431.491L124.581 431.814Z" fill="#5107AF"/>
<path d="M121.672 430.186C121.672 430.689 121.806 430.76 122.097 430.88L122.568 431.059V429.469H122.288C121.941 429.469 121.672 429.792 121.672 430.186Z" fill="#5107AF"/>
<path d="M34.6934 391.349L31.9959 398.056H29.2984C28.8506 398.056 28.4141 398.092 27.9888 398.187L29.1081 395.318L29.1528 395.21L29.22 395.019C29.2536 394.935 29.276 394.864 29.3095 394.804C30.6079 391.588 32.063 390.584 34.6934 391.349Z" fill="#5107AF"/>
<path d="M42.2956 398.376L42.2732 398.364C41.6016 398.161 40.9188 398.053 40.2249 398.053H33.218L35.7365 391.8L35.77 391.717C35.9267 391.776 36.0946 391.86 36.2625 391.92L38.7362 393.032C40.1129 393.642 41.0755 394.275 41.6688 395.04C41.7695 395.184 41.859 395.315 41.9486 395.471C42.0493 395.638 42.1277 395.806 42.1724 395.985C42.2172 396.093 42.2508 396.188 42.2732 396.296C42.4411 396.905 42.4523 397.599 42.2956 398.376Z" fill="#5107AF"/>
<path d="M35.3429 409.816H35.6227C35.9585 409.816 36.2383 409.493 36.2383 409.099C36.2383 408.597 36.104 408.525 35.813 408.405L35.3429 408.226V409.816Z" fill="#5107AF"/>
<path d="M41.7999 400.087C41.2962 399.931 40.7702 399.848 40.2217 399.848H29.2973C28.5362 399.848 27.8198 400.003 27.1482 400.314C25.2006 401.211 23.8351 403.279 23.8351 405.682V408.013C23.8351 408.3 23.8575 408.575 23.891 408.862C24.1373 412.664 26.0401 414.697 29.5995 414.948C29.8569 414.984 30.1144 415.008 30.3942 415.008H39.1248C43.2662 415.008 45.4489 412.903 45.6615 408.719C45.6727 408.492 45.6839 408.253 45.6839 408.013V405.682C45.6839 403.04 44.0385 400.816 41.7999 400.087ZM36.1922 407.236C36.7071 407.428 37.4011 407.834 37.4011 409.101C37.4011 410.189 36.6064 411.062 35.6214 411.062H35.3415V411.325C35.3415 411.672 35.0841 411.947 34.7595 411.947C34.4349 411.947 34.1775 411.672 34.1775 411.325V411.062H34.0767C33.0022 411.062 32.1179 410.094 32.1179 408.898C32.1179 408.551 32.3754 408.276 32.7 408.276C33.0246 408.276 33.282 408.551 33.282 408.898C33.282 409.4 33.6402 409.819 34.0767 409.819H34.1775V407.798L33.3268 407.475C32.8119 407.284 32.1179 406.878 32.1179 405.61C32.1179 404.522 32.9127 403.65 33.8976 403.65H34.1775V403.387C34.1775 403.04 34.4349 402.765 34.7595 402.765C35.0841 402.765 35.3415 403.04 35.3415 403.387V403.65H35.4423C36.5168 403.65 37.4011 404.618 37.4011 405.814C37.4011 406.16 37.1436 406.435 36.819 406.435C36.4944 406.435 36.237 406.16 36.237 405.814C36.237 405.311 35.8788 404.893 35.4423 404.893H35.3415V406.913L36.1922 407.236Z" fill="#5107AF"/>
<path d="M33.2836 405.609C33.2836 406.111 33.4179 406.183 33.7089 406.302L34.179 406.482V404.892H33.8992C33.5522 404.892 33.2836 405.214 33.2836 405.609Z" fill="#5107AF"/>
<path d="M65.4804 325.096L62.7829 331.803H60.0853C59.6376 331.803 59.2011 331.839 58.7758 331.935L59.8951 329.065L59.9398 328.958L60.007 328.766C60.0406 328.683 60.063 328.611 60.0965 328.551C61.3949 325.335 62.85 324.331 65.4804 325.096Z" fill="#5107AF"/>
<path d="M73.0826 332.123L73.0602 332.111C72.3886 331.908 71.7058 331.801 71.0118 331.801H64.005L66.5234 325.548L66.557 325.464C66.7137 325.524 66.8816 325.607 67.0495 325.667L69.5232 326.779C70.8999 327.389 71.8625 328.022 72.4557 328.788C72.5565 328.931 72.646 329.063 72.7356 329.218C72.8363 329.385 72.9147 329.553 72.9594 329.732C73.0042 329.84 73.0378 329.935 73.0602 330.043C73.2281 330.653 73.2393 331.346 73.0826 332.123Z" fill="#5107AF"/>
<path d="M66.1299 343.563H66.4097C66.7455 343.563 67.0253 343.241 67.0253 342.846C67.0253 342.344 66.891 342.272 66.6 342.153L66.1299 341.973V343.563Z" fill="#5107AF"/>
<path d="M72.5869 333.834C72.0832 333.679 71.5572 333.595 71.0087 333.595H60.0843C59.3231 333.595 58.6068 333.75 57.9352 334.061C55.9876 334.958 54.6221 337.026 54.6221 339.429V341.761C54.6221 342.048 54.6445 342.323 54.678 342.61C54.9243 346.411 56.8271 348.444 60.3865 348.695C60.6439 348.731 60.9014 348.755 61.1812 348.755H69.9118C74.0532 348.755 76.2358 346.651 76.4485 342.466C76.4597 342.239 76.4709 342 76.4709 341.761V339.429C76.4709 336.787 74.8255 334.563 72.5869 333.834ZM66.9792 340.984C67.4941 341.175 68.1881 341.581 68.1881 342.849C68.1881 343.937 67.3933 344.809 66.4084 344.809H66.1285V345.072C66.1285 345.419 65.8711 345.694 65.5465 345.694C65.2219 345.694 64.9645 345.419 64.9645 345.072V344.809H64.8637C63.7892 344.809 62.9049 343.841 62.9049 342.645C62.9049 342.299 63.1624 342.024 63.487 342.024C63.8116 342.024 64.069 342.299 64.069 342.645C64.069 343.148 64.4272 343.566 64.8637 343.566H64.9645V341.545L64.1138 341.223C63.5989 341.031 62.9049 340.625 62.9049 339.358C62.9049 338.27 63.6996 337.397 64.6846 337.397H64.9645V337.134C64.9645 336.787 65.2219 336.512 65.5465 336.512C65.8711 336.512 66.1285 336.787 66.1285 337.134V337.397H66.2293C67.3038 337.397 68.1881 338.365 68.1881 339.561C68.1881 339.908 67.9306 340.182 67.606 340.182C67.2814 340.182 67.024 339.908 67.024 339.561C67.024 339.059 66.6658 338.64 66.2293 338.64H66.1285V340.661L66.9792 340.984Z" fill="#5107AF"/>
<path d="M64.0706 339.356C64.0706 339.858 64.2049 339.93 64.4959 340.05L64.966 340.229V338.639H64.6862C64.3392 338.639 64.0706 338.962 64.0706 339.356Z" fill="#5107AF"/>
<path d="M172.738 257.775L170.041 264.482H167.343C166.895 264.482 166.459 264.518 166.034 264.613L167.153 261.744L167.198 261.636L167.265 261.445C167.298 261.361 167.321 261.29 167.354 261.23C168.653 258.014 170.108 257.01 172.738 257.775Z" fill="#5107AF"/>
<path d="M180.34 264.802L180.318 264.79C179.647 264.587 178.964 264.479 178.27 264.479H171.263L173.781 258.226L173.815 258.143C173.972 258.202 174.14 258.286 174.307 258.346L176.781 259.458C178.158 260.067 179.12 260.701 179.714 261.466C179.814 261.61 179.904 261.741 179.994 261.897C180.094 262.064 180.173 262.231 180.217 262.411C180.262 262.518 180.296 262.614 180.318 262.722C180.486 263.331 180.497 264.025 180.34 264.802Z" fill="#5107AF"/>
<path d="M173.388 276.242H173.668C174.003 276.242 174.283 275.919 174.283 275.525C174.283 275.023 174.149 274.951 173.858 274.831L173.388 274.652V276.242Z" fill="#5107AF"/>
<path d="M179.845 266.513C179.341 266.357 178.815 266.274 178.267 266.274H167.342C166.581 266.274 165.865 266.429 165.193 266.74C163.246 267.637 161.88 269.705 161.88 272.108V274.439C161.88 274.726 161.902 275.001 161.936 275.288C162.182 279.09 164.085 281.123 167.644 281.374C167.902 281.41 168.159 281.434 168.439 281.434H177.17C181.311 281.434 183.494 279.329 183.706 275.145C183.718 274.918 183.729 274.678 183.729 274.439V272.108C183.729 269.466 182.083 267.242 179.845 266.513ZM174.237 273.662C174.752 273.854 175.446 274.26 175.446 275.527C175.446 276.615 174.651 277.488 173.666 277.488H173.386V277.751C173.386 278.098 173.129 278.373 172.804 278.373C172.48 278.373 172.222 278.098 172.222 277.751V277.488H172.122C171.047 277.488 170.163 276.52 170.163 275.324C170.163 274.977 170.42 274.702 170.745 274.702C171.07 274.702 171.327 274.977 171.327 275.324C171.327 275.826 171.685 276.245 172.122 276.245H172.222V274.224L171.372 273.901C170.857 273.71 170.163 273.304 170.163 272.036C170.163 270.948 170.958 270.075 171.943 270.075H172.222V269.812C172.222 269.466 172.48 269.191 172.804 269.191C173.129 269.191 173.386 269.466 173.386 269.812V270.075H173.487C174.562 270.075 175.446 271.044 175.446 272.239C175.446 272.586 175.189 272.861 174.864 272.861C174.539 272.861 174.282 272.586 174.282 272.239C174.282 271.737 173.924 271.319 173.487 271.319H173.386V273.339L174.237 273.662Z" fill="#5107AF"/>
<path d="M171.328 272.035C171.328 272.537 171.463 272.609 171.754 272.728L172.224 272.908V271.317H171.944C171.597 271.317 171.328 271.64 171.328 272.035Z" fill="#5107AF"/>
<path d="M127.054 188.316L124.357 195.023H121.659C121.212 195.023 120.775 195.059 120.35 195.155L121.469 192.285L121.514 192.178L121.581 191.987C121.615 191.903 121.637 191.831 121.671 191.771C122.969 188.555 124.424 187.551 127.054 188.316Z" fill="#5107AF"/>
<path d="M134.657 195.343L134.634 195.332C133.963 195.128 133.28 195.021 132.586 195.021H125.579L128.097 188.768L128.131 188.684C128.288 188.744 128.456 188.828 128.623 188.887L131.097 189.999C132.474 190.609 133.436 191.243 134.03 192.008C134.13 192.151 134.22 192.283 134.31 192.438C134.41 192.606 134.489 192.773 134.533 192.952C134.578 193.06 134.612 193.156 134.634 193.263C134.802 193.873 134.813 194.566 134.657 195.343Z" fill="#5107AF"/>
<path d="M127.704 206.784H127.984C128.319 206.784 128.599 206.461 128.599 206.066C128.599 205.564 128.465 205.492 128.174 205.373L127.704 205.193V206.784Z" fill="#5107AF"/>
<path d="M134.161 197.054C133.657 196.899 133.131 196.815 132.583 196.815H121.658C120.897 196.815 120.181 196.97 119.509 197.281C117.562 198.178 116.196 200.246 116.196 202.649V204.981C116.196 205.268 116.218 205.543 116.252 205.83C116.498 209.632 118.401 211.664 121.96 211.915C122.218 211.951 122.475 211.975 122.755 211.975H131.486C135.627 211.975 137.81 209.871 138.022 205.686C138.034 205.459 138.045 205.22 138.045 204.981V202.649C138.045 200.007 136.399 197.783 134.161 197.054ZM128.553 204.204C129.068 204.395 129.762 204.801 129.762 206.069C129.762 207.157 128.967 208.03 127.982 208.03H127.703V208.293C127.703 208.639 127.445 208.914 127.12 208.914C126.796 208.914 126.538 208.639 126.538 208.293V208.03H126.438C125.363 208.03 124.479 207.061 124.479 205.866C124.479 205.519 124.736 205.244 125.061 205.244C125.386 205.244 125.643 205.519 125.643 205.866C125.643 206.368 126.001 206.786 126.438 206.786H126.538V204.766L125.688 204.443C125.173 204.252 124.479 203.845 124.479 202.578C124.479 201.49 125.274 200.617 126.259 200.617H126.538V200.354C126.538 200.007 126.796 199.732 127.12 199.732C127.445 199.732 127.703 200.007 127.703 200.354V200.617H127.803C128.878 200.617 129.762 201.585 129.762 202.781C129.762 203.128 129.505 203.403 129.18 203.403C128.855 203.403 128.598 203.128 128.598 202.781C128.598 202.279 128.24 201.86 127.803 201.86H127.703V203.881L128.553 204.204Z" fill="#5107AF"/>
<path d="M125.645 202.576C125.645 203.078 125.779 203.15 126.07 203.27L126.54 203.449V201.859H126.26C125.913 201.859 125.645 202.182 125.645 202.576Z" fill="#5107AF"/>
<path d="M17.8102 172.287L15.1127 178.994H12.4152C11.9675 178.994 11.5309 179.03 11.1056 179.126L12.2249 176.257L12.2697 176.149L12.3368 175.958C12.3704 175.874 12.3928 175.802 12.4264 175.742C13.7248 172.526 15.1799 171.522 17.8102 172.287Z" fill="#5107AF"/>
<path d="M25.4124 179.315L25.39 179.303C24.7184 179.099 24.0356 178.992 23.3417 178.992H16.3348L18.8533 172.739L18.8869 172.655C19.0436 172.715 19.2114 172.799 19.3793 172.858L21.853 173.97C23.2297 174.58 24.1924 175.214 24.7856 175.979C24.8863 176.122 24.9759 176.254 25.0654 176.409C25.1661 176.577 25.2445 176.744 25.2893 176.923C25.334 177.031 25.3676 177.127 25.39 177.234C25.5579 177.844 25.5691 178.537 25.4124 179.315Z" fill="#5107AF"/>
<path d="M18.4597 190.755H18.7395C19.0753 190.755 19.3552 190.432 19.3552 190.037C19.3552 189.535 19.2208 189.463 18.9298 189.344L18.4597 189.164V190.755Z" fill="#5107AF"/>
<path d="M24.9167 181.025C24.4131 180.87 23.887 180.786 23.3385 180.786H12.4141C11.653 180.786 10.9366 180.942 10.265 181.252C8.31745 182.149 6.9519 184.217 6.9519 186.621V188.952C6.9519 189.239 6.97429 189.514 7.00787 189.801C7.25412 193.603 9.15693 195.635 12.7163 195.886C12.9738 195.922 13.2312 195.946 13.511 195.946H22.2416C26.383 195.946 28.5657 193.842 28.7783 189.657C28.7895 189.43 28.8007 189.191 28.8007 188.952V186.621C28.8007 183.978 27.1554 181.755 24.9167 181.025ZM19.309 188.175C19.8239 188.366 20.5179 188.773 20.5179 190.04C20.5179 191.128 19.7232 192.001 18.7382 192.001H18.4584V192.264C18.4584 192.61 18.2009 192.885 17.8763 192.885C17.5517 192.885 17.2943 192.61 17.2943 192.264V192.001H17.1936C16.119 192.001 15.2348 191.032 15.2348 189.837C15.2348 189.49 15.4922 189.215 15.8168 189.215C16.1414 189.215 16.3988 189.49 16.3988 189.837C16.3988 190.339 16.757 190.757 17.1936 190.757H17.2943V188.737L16.4436 188.414C15.9287 188.223 15.2348 187.816 15.2348 186.549C15.2348 185.461 16.0295 184.588 17.0145 184.588H17.2943V184.325C17.2943 183.978 17.5517 183.703 17.8763 183.703C18.2009 183.703 18.4584 183.978 18.4584 184.325V184.588H18.5591C19.6336 184.588 20.5179 185.556 20.5179 186.752C20.5179 187.099 20.2604 187.374 19.9358 187.374C19.6112 187.374 19.3538 187.099 19.3538 186.752C19.3538 186.25 18.9956 185.831 18.5591 185.831H18.4584V187.852L19.309 188.175Z" fill="#5107AF"/>
<path d="M16.4004 186.547C16.4004 187.05 16.5347 187.121 16.8257 187.241L17.2958 187.42V185.83H17.016C16.669 185.83 16.4004 186.153 16.4004 186.547Z" fill="#5107AF"/>
<path d="M63.494 101.76L60.7965 108.467H58.099C57.6513 108.467 57.2148 108.503 56.7894 108.599L57.9087 105.729L57.9535 105.622L58.0207 105.431C58.0542 105.347 58.0766 105.275 58.1102 105.215C59.4086 101.999 60.8637 100.995 63.494 101.76Z" fill="#5107AF"/>
<path d="M71.0964 108.787L71.074 108.775C70.4024 108.572 69.7196 108.465 69.0256 108.465H62.0188L64.5372 102.212L64.5708 102.128C64.7275 102.188 64.8954 102.272 65.0633 102.331L67.537 103.443C68.9137 104.053 69.8763 104.687 70.4695 105.452C70.5703 105.595 70.6598 105.727 70.7494 105.882C70.8501 106.05 70.9285 106.217 70.9732 106.396C71.018 106.504 71.0516 106.6 71.074 106.707C71.2419 107.317 71.2531 108.01 71.0964 108.787Z" fill="#5107AF"/>
<path d="M64.1436 120.228H64.4234C64.7592 120.228 65.039 119.905 65.039 119.51C65.039 119.008 64.9047 118.936 64.6137 118.817L64.1436 118.637V120.228Z" fill="#5107AF"/>
<path d="M70.6007 110.498C70.097 110.343 69.5709 110.259 69.0225 110.259H58.0981C57.3369 110.259 56.6206 110.414 55.949 110.725C54.0014 111.622 52.6359 113.69 52.6359 116.093V118.425C52.6359 118.712 52.6583 118.987 52.6918 119.274C52.9381 123.076 54.8409 125.108 58.4003 125.359C58.6577 125.395 58.9152 125.419 59.195 125.419H67.9256C72.067 125.419 74.2496 123.315 74.4623 119.13C74.4735 118.903 74.4847 118.664 74.4847 118.425V116.093C74.4847 113.451 72.8393 111.227 70.6007 110.498ZM64.993 117.648C65.5079 117.839 66.2018 118.246 66.2018 119.513C66.2018 120.601 65.4071 121.474 64.4222 121.474H64.1423V121.737C64.1423 122.083 63.8849 122.358 63.5603 122.358C63.2357 122.358 62.9783 122.083 62.9783 121.737V121.474H62.8775C61.803 121.474 60.9187 120.505 60.9187 119.31C60.9187 118.963 61.1762 118.688 61.5008 118.688C61.8254 118.688 62.0828 118.963 62.0828 119.31C62.0828 119.812 62.441 120.23 62.8775 120.23H62.9783V118.21L62.1276 117.887C61.6127 117.696 60.9187 117.289 60.9187 116.022C60.9187 114.934 61.7134 114.061 62.6984 114.061H62.9783V113.798C62.9783 113.451 63.2357 113.176 63.5603 113.176C63.8849 113.176 64.1423 113.451 64.1423 113.798V114.061H64.2431C65.3176 114.061 66.2018 115.029 66.2018 116.225C66.2018 116.572 65.9444 116.847 65.6198 116.847C65.2952 116.847 65.0378 116.572 65.0378 116.225C65.0378 115.723 64.6796 115.304 64.2431 115.304H64.1423V117.325L64.993 117.648Z" fill="#5107AF"/>
<path d="M62.0844 116.02C62.0844 116.522 62.2187 116.594 62.5097 116.714L62.9798 116.893V115.303H62.7C62.353 115.303 62.0844 115.626 62.0844 116.02Z" fill="#5107AF"/>
<path d="M165.786 6.65542L163.089 13.3626H160.391C159.944 13.3626 159.507 13.3985 159.082 13.4942L160.201 10.6248L160.246 10.5172L160.313 10.3259C160.346 10.2422 160.369 10.1704 160.402 10.1107C161.701 6.89454 163.156 5.89025 165.786 6.65542Z" fill="#5107AF"/>
<path d="M173.389 13.6827L173.366 13.6707C172.695 13.4675 172.012 13.3599 171.318 13.3599H164.311L166.829 7.10701L166.863 7.02332C167.02 7.08309 167.188 7.16679 167.356 7.22656L169.829 8.33845C171.206 8.9482 172.169 9.58186 172.762 10.347C172.863 10.4905 172.952 10.622 173.042 10.7774C173.142 10.9448 173.221 11.1122 173.265 11.2915C173.31 11.3991 173.344 11.4948 173.366 11.6024C173.534 12.2121 173.545 12.9056 173.389 13.6827Z" fill="#5107AF"/>
<path d="M166.436 25.1228H166.716C167.051 25.1228 167.331 24.8 167.331 24.4054C167.331 23.9033 167.197 23.8315 166.906 23.712L166.436 23.5327V25.1228Z" fill="#5107AF"/>
<path d="M172.893 15.3934C172.389 15.238 171.863 15.1543 171.315 15.1543H160.39C159.629 15.1543 158.913 15.3097 158.241 15.6206C156.294 16.5172 154.928 18.5856 154.928 20.9887V23.3201C154.928 23.607 154.95 23.882 154.984 24.169C155.23 27.9709 157.133 30.0034 160.693 30.2545C160.95 30.2903 161.207 30.3143 161.487 30.3143H170.218C174.359 30.3143 176.542 28.21 176.755 24.0255C176.766 23.7983 176.777 23.5592 176.777 23.3201V20.9887C176.777 18.3465 175.132 16.1227 172.893 15.3934ZM167.285 22.543C167.8 22.7343 168.494 23.1408 168.494 24.4081C168.494 25.4961 167.699 26.3688 166.714 26.3688H166.435V26.6319C166.435 26.9786 166.177 27.2536 165.853 27.2536C165.528 27.2536 165.27 26.9786 165.27 26.6319V26.3688H165.17C164.095 26.3688 163.211 25.4004 163.211 24.2048C163.211 23.8581 163.468 23.5831 163.793 23.5831C164.118 23.5831 164.375 23.8581 164.375 24.2048C164.375 24.707 164.733 25.1254 165.17 25.1254H165.27V23.1049L164.42 22.7821C163.905 22.5908 163.211 22.1843 163.211 20.917C163.211 19.829 164.006 18.9562 164.991 18.9562H165.27V18.6932C165.27 18.3465 165.528 18.0715 165.853 18.0715C166.177 18.0715 166.435 18.3465 166.435 18.6932V18.9562H166.535C167.61 18.9562 168.494 19.9247 168.494 21.1202C168.494 21.467 168.237 21.7419 167.912 21.7419C167.587 21.7419 167.33 21.467 167.33 21.1202C167.33 20.6181 166.972 20.1996 166.535 20.1996H166.435V22.2202L167.285 22.543Z" fill="#5107AF"/>
<path d="M164.377 20.9155C164.377 21.4177 164.511 21.4894 164.802 21.609L165.272 21.7883V20.1982H164.992C164.645 20.1982 164.377 20.521 164.377 20.9155Z" fill="#5107AF"/>
<path d="M77.3978 625.371L74.7003 632.078H72.0028C71.5551 632.078 71.1186 632.114 70.6932 632.209L71.8125 629.34L71.8573 629.232L71.9245 629.041C71.9581 628.957 71.9804 628.886 72.014 628.826C73.3124 625.61 74.7675 624.605 77.3978 625.371Z" fill="#5107AF"/>
<path d="M85.0002 632.398L84.9778 632.386C84.3062 632.183 83.6234 632.075 82.9294 632.075H75.9226L78.441 625.822L78.4746 625.738C78.6313 625.798 78.7992 625.882 78.9671 625.942L81.4408 627.054C82.8175 627.663 83.7801 628.297 84.3733 629.062C84.4741 629.206 84.5636 629.337 84.6532 629.493C84.7539 629.66 84.8323 629.827 84.877 630.007C84.9218 630.114 84.9554 630.21 84.9778 630.318C85.1457 630.927 85.1569 631.621 85.0002 632.398Z" fill="#5107AF"/>
<path d="M78.0474 643.838H78.3272C78.663 643.838 78.9428 643.515 78.9428 643.121C78.9428 642.618 78.8085 642.547 78.5175 642.427L78.0474 642.248V643.838Z" fill="#5107AF"/>
<path d="M84.5045 634.108C84.0008 633.953 83.4748 633.869 82.9263 633.869H72.0019C71.2407 633.869 70.5244 634.025 69.8528 634.336C67.9052 635.232 66.5397 637.301 66.5397 639.704V642.035C66.5397 642.322 66.5621 642.597 66.5956 642.884C66.8419 646.686 68.7447 648.718 72.3041 648.97C72.5615 649.005 72.819 649.029 73.0988 649.029H81.8294C85.9708 649.029 88.1534 646.925 88.3661 642.741C88.3773 642.513 88.3885 642.274 88.3885 642.035V639.704C88.3885 637.062 86.7431 634.838 84.5045 634.108ZM78.8968 641.258C79.4117 641.449 80.1057 641.856 80.1057 643.123C80.1057 644.211 79.3109 645.084 78.326 645.084H78.0461V645.347C78.0461 645.694 77.7887 645.969 77.4641 645.969C77.1395 645.969 76.8821 645.694 76.8821 645.347V645.084H76.7813C75.7068 645.084 74.8225 644.115 74.8225 642.92C74.8225 642.573 75.08 642.298 75.4046 642.298C75.7292 642.298 75.9866 642.573 75.9866 642.92C75.9866 643.422 76.3448 643.84 76.7813 643.84H76.8821V641.82L76.0314 641.497C75.5165 641.306 74.8225 640.899 74.8225 639.632C74.8225 638.544 75.6172 637.671 76.6022 637.671H76.8821V637.408C76.8821 637.062 77.1395 636.787 77.4641 636.787C77.7887 636.787 78.0461 637.062 78.0461 637.408V637.671H78.1469C79.2214 637.671 80.1057 638.64 80.1057 639.835C80.1057 640.182 79.8482 640.457 79.5236 640.457C79.199 640.457 78.9416 640.182 78.9416 639.835C78.9416 639.333 78.5834 638.915 78.1469 638.915H78.0461V640.935L78.8968 641.258Z" fill="#5107AF"/>
<path d="M75.9882 639.631C75.9882 640.133 76.1225 640.204 76.4135 640.324L76.8836 640.503V638.913H76.6038C76.2568 638.913 75.9882 639.236 75.9882 639.631Z" fill="#5107AF"/>
<path d="M168.766 655.291L166.068 661.998H163.371C162.923 661.998 162.486 662.034 162.061 662.13L163.18 659.26L163.225 659.153L163.292 658.962C163.326 658.878 163.348 658.806 163.382 658.746C164.68 655.53 166.135 654.526 168.766 655.291Z" fill="#5107AF"/>
<path d="M176.368 662.318L176.346 662.307C175.674 662.103 174.991 661.996 174.297 661.996H167.29L169.809 655.743L169.842 655.659C169.999 655.719 170.167 655.803 170.335 655.862L172.809 656.974C174.185 657.584 175.148 658.218 175.741 658.983C175.842 659.126 175.931 659.258 176.021 659.413C176.122 659.581 176.2 659.748 176.245 659.927C176.29 660.035 176.323 660.131 176.346 660.238C176.513 660.848 176.525 661.541 176.368 662.318Z" fill="#5107AF"/>
<path d="M169.415 673.758H169.695C170.031 673.758 170.311 673.436 170.311 673.041C170.311 672.539 170.176 672.467 169.885 672.348L169.415 672.168V673.758Z" fill="#5107AF"/>
<path d="M175.872 664.029C175.369 663.874 174.843 663.79 174.294 663.79H163.37C162.609 663.79 161.892 663.945 161.221 664.256C159.273 665.153 157.907 667.221 157.907 669.624V671.956C157.907 672.243 157.93 672.518 157.963 672.805C158.21 676.607 160.112 678.639 163.672 678.89C163.929 678.926 164.187 678.95 164.467 678.95H173.197C177.339 678.95 179.521 676.846 179.734 672.661C179.745 672.434 179.756 672.195 179.756 671.956V669.624C179.756 666.982 178.111 664.758 175.872 664.029ZM170.265 671.179C170.779 671.37 171.473 671.776 171.473 673.044C171.473 674.132 170.679 675.005 169.694 675.005H169.414V675.268C169.414 675.614 169.156 675.889 168.832 675.889C168.507 675.889 168.25 675.614 168.25 675.268V675.005H168.149C167.075 675.005 166.19 674.036 166.19 672.841C166.19 672.494 166.448 672.219 166.772 672.219C167.097 672.219 167.354 672.494 167.354 672.841C167.354 673.343 167.713 673.761 168.149 673.761H168.25V671.741L167.399 671.418C166.884 671.226 166.19 670.82 166.19 669.553C166.19 668.465 166.985 667.592 167.97 667.592H168.25V667.329C168.25 666.982 168.507 666.707 168.832 666.707C169.156 666.707 169.414 666.982 169.414 667.329V667.592H169.515C170.589 667.592 171.473 668.56 171.473 669.756C171.473 670.103 171.216 670.378 170.891 670.378C170.567 670.378 170.309 670.103 170.309 669.756C170.309 669.254 169.951 668.835 169.515 668.835H169.414V670.856L170.265 671.179Z" fill="#5107AF"/>
<path d="M167.356 669.551C167.356 670.053 167.49 670.125 167.781 670.245L168.251 670.424V668.834H167.972C167.625 668.834 167.356 669.157 167.356 669.551Z" fill="#5107AF"/>
<path d="M126.061 712.995L123.364 719.702H120.666C120.218 719.702 119.782 719.738 119.357 719.834L120.476 716.964L120.521 716.857L120.588 716.666C120.621 716.582 120.644 716.51 120.677 716.45C121.976 713.234 123.431 712.23 126.061 712.995Z" fill="#5107AF"/>
<path d="M133.663 720.022L133.641 720.011C132.97 719.807 132.287 719.7 131.593 719.7H124.586L127.104 713.447L127.138 713.363C127.295 713.423 127.463 713.507 127.63 713.566L130.104 714.678C131.481 715.288 132.443 715.922 133.037 716.687C133.137 716.83 133.227 716.962 133.317 717.117C133.417 717.285 133.496 717.452 133.54 717.631C133.585 717.739 133.619 717.835 133.641 717.942C133.809 718.552 133.82 719.245 133.663 720.022Z" fill="#5107AF"/>
<path d="M126.711 731.462H126.991C127.326 731.462 127.606 731.14 127.606 730.745C127.606 730.243 127.472 730.171 127.181 730.052L126.711 729.872V731.462Z" fill="#5107AF"/>
<path d="M133.168 721.733C132.664 721.578 132.138 721.494 131.59 721.494H120.665C119.904 721.494 119.188 721.649 118.516 721.96C116.568 722.857 115.203 724.925 115.203 727.328V729.66C115.203 729.947 115.225 730.222 115.259 730.509C115.505 734.311 117.408 736.343 120.967 736.594C121.225 736.63 121.482 736.654 121.762 736.654H130.493C134.634 736.654 136.817 734.55 137.029 730.365C137.041 730.138 137.052 729.899 137.052 729.66V727.328C137.052 724.686 135.406 722.462 133.168 721.733ZM127.56 728.883C128.075 729.074 128.769 729.48 128.769 730.748C128.769 731.836 127.974 732.709 126.989 732.709H126.709V732.972C126.709 733.318 126.452 733.593 126.127 733.593C125.803 733.593 125.545 733.318 125.545 732.972V732.709H125.445C124.37 732.709 123.486 731.74 123.486 730.545C123.486 730.198 123.743 729.923 124.068 729.923C124.392 729.923 124.65 730.198 124.65 730.545C124.65 731.047 125.008 731.465 125.445 731.465H125.545V729.445L124.695 729.122C124.18 728.93 123.486 728.524 123.486 727.257C123.486 726.169 124.28 725.296 125.265 725.296H125.545V725.033C125.545 724.686 125.803 724.411 126.127 724.411C126.452 724.411 126.709 724.686 126.709 725.033V725.296H126.81C127.885 725.296 128.769 726.264 128.769 727.46C128.769 727.807 128.511 728.082 128.187 728.082C127.862 728.082 127.605 727.807 127.605 727.46C127.605 726.958 127.247 726.539 126.81 726.539H126.709V728.56L127.56 728.883Z" fill="#5107AF"/>
<path d="M124.651 727.255C124.651 727.757 124.786 727.829 125.077 727.949L125.547 728.128V726.538H125.267C124.92 726.538 124.651 726.861 124.651 727.255Z" fill="#5107AF"/>
</svg>
