<svg width="20" height="20" viewBox="0 0 20 20" fill="none" xmlns="http://www.w3.org/2000/svg">
<path d="M14.0001 10.9V15.1C14.0001 18.6 12.6001 20 9.10009 20H4.90005C1.40001 20 0 18.6 0 15.1V10.9C0 7.4 1.40001 6 4.90005 6H9.10009C12.6001 6 14.0001 7.4 14.0001 10.9Z" fill="white"/>
<path d="M15.0999 0H10.8999C7.81672 0 6.37076 1.09409 6.06953 3.73901C6.00651 4.29235 6.46479 4.75 7.0217 4.75H9.09985C13.2999 4.75 15.2499 6.7 15.2499 10.9V12.9781C15.2499 13.535 15.7075 13.9933 16.2609 13.9303C18.9058 13.629 20 12.1831 20 9.1V4.9C20 1.4 18.5999 0 15.0999 0Z" fill="white"/>
</svg>
