<svg width="30" height="34" viewBox="0 0 30 34" fill="none" xmlns="http://www.w3.org/2000/svg">
<path d="M30 15.3409V7.95035C30 6.56988 28.9562 5.00422 27.6599 4.48233L18.2828 0.643941C16.1784 -0.214647 13.8047 -0.214647 11.7003 0.643941L2.32324 4.48233C1.04377 5.00422 0 6.56988 0 7.95035V15.3409C0 23.5733 5.97645 31.2837 14.1414 33.5396C14.6969 33.6911 15.303 33.6911 15.8586 33.5396C24.0236 31.2837 30 23.5733 30 15.3409ZM16.2626 18.2871V22.7147C16.2626 23.4049 15.6902 23.9773 15 23.9773C14.3097 23.9773 13.7373 23.4049 13.7373 22.7147V18.2871C12.037 17.7483 10.7913 16.1658 10.7913 14.2972C10.7913 11.9739 12.6767 10.0884 15 10.0884C17.3232 10.0884 19.2087 11.9739 19.2087 14.2972C19.2087 16.1827 17.9629 17.7483 16.2626 18.2871Z" fill="#292D32"/>
</svg>
