<svg width="23" height="15" viewBox="0 0 23 15" fill="none" xmlns="http://www.w3.org/2000/svg">
<path d="M22.1375 5.00875C19.481 1.83012 15.594 0 11.5 0C9.453 0 7.4635 0.455341 5.6465 1.30473C3.8295 2.16287 2.1965 3.41506 0.8625 5.00875C-0.2875 6.38354 -0.2875 8.61646 0.8625 9.99125C3.519 13.1786 7.406 15 11.5 15C13.547 15 15.5365 14.5447 17.3535 13.6953C19.1705 12.8371 20.8035 11.5849 22.1375 9.99125C23.2875 8.62522 23.2875 6.38354 22.1375 5.00875ZM11.5 11.042C8.924 11.042 6.854 9.4571 6.854 7.50438C6.854 5.55166 8.924 3.96672 11.5 3.96672C14.076 3.96672 16.146 5.55166 16.146 7.50438C16.146 9.4571 14.076 11.042 11.5 11.042Z" fill="#292D32"/>
<path d="M11.4982 5.00085C9.69266 5.00085 8.2207 6.12168 8.2207 7.50521C8.2207 8.87999 9.69266 10.0008 11.4982 10.0008C13.3037 10.0008 14.7872 8.87999 14.7872 7.50521C14.7872 6.13043 13.3037 5.00085 11.4982 5.00085Z" fill="#292D32"/>
</svg>
