<svg width="17" height="17" viewBox="0 0 17 17" fill="none" xmlns="http://www.w3.org/2000/svg">
<path d="M8.89121 10.8974H6.91539C6.59135 10.8974 6.32264 10.601 6.32264 10.2436C6.32264 9.88615 6.59135 9.58974 6.91539 9.58974H8.89121C10.9619 9.58974 12.6453 7.73282 12.6453 5.44872C12.6453 3.16462 10.9619 1.30769 8.89121 1.30769H4.93956C2.8689 1.30769 1.1855 3.16462 1.1855 5.44872C1.1855 6.40769 1.49372 7.34051 2.04695 8.08154C2.25244 8.36051 2.22083 8.77026 1.96792 9.00564C1.71502 9.23231 1.34356 9.19744 1.13017 8.91846C0.403068 7.94205 0 6.71282 0 5.44872C0 2.44103 2.21292 0 4.93956 0H8.89121C11.6179 0 13.8308 2.44103 13.8308 5.44872C13.8308 8.45641 11.6179 10.8974 8.89121 10.8974Z" fill="white"/>
<path d="M12.0526 17H8.10094C5.3743 17 3.16138 14.559 3.16138 11.5513C3.16138 8.54363 5.3743 6.1026 8.10094 6.1026H10.0768C10.4008 6.1026 10.6695 6.39901 10.6695 6.75645C10.6695 7.11388 10.4008 7.41029 10.0768 7.41029H8.10094C6.03027 7.41029 4.34687 9.26722 4.34687 11.5513C4.34687 13.8354 6.03027 15.6923 8.10094 15.6923H12.0526C14.1233 15.6923 15.8067 13.8354 15.8067 11.5513C15.8067 10.5923 15.4984 9.65952 14.9452 8.9185C14.7397 8.63952 14.7713 8.22978 15.0242 7.9944C15.2771 7.75901 15.6486 7.8026 15.862 8.08157C16.597 9.05799 17.0001 10.2872 17.0001 11.5513C16.9922 14.559 14.7792 17 12.0526 17Z" fill="white"/>
</svg>
