<svg width="18" height="17" viewBox="0 0 18 17" fill="none" xmlns="http://www.w3.org/2000/svg">
<path d="M17.3721 15.6705H16.5349V6.23512C16.5349 5.71605 16.3005 5.23047 15.8902 4.91233L14.8605 4.1086L14.8437 2.05744C14.8437 1.59698 14.467 1.2286 14.0065 1.2286H11.1516L10.0298 0.357907C9.42698 -0.119302 8.57302 -0.119302 7.97023 0.357907L2.10977 4.91233C1.69953 5.23047 1.46512 5.71605 1.46512 6.22674L1.42326 15.6705H0.627907C0.284651 15.6705 0 15.9552 0 16.2984C0 16.6417 0.284651 16.9263 0.627907 16.9263H17.3721C17.7153 16.9263 18 16.6417 18 16.2984C18 15.9552 17.7153 15.6705 17.3721 15.6705ZM4.39535 8.55414V7.29833C4.39535 6.83787 4.77209 6.46112 5.23256 6.46112H6.90698C7.36744 6.46112 7.74419 6.83787 7.74419 7.29833V8.55414C7.74419 9.01461 7.36744 9.39135 6.90698 9.39135H5.23256C4.77209 9.39135 4.39535 9.01461 4.39535 8.55414ZM11.093 15.6705H6.90698V13.3681C6.90698 12.6732 7.46791 12.1123 8.16279 12.1123H9.83721C10.5321 12.1123 11.093 12.6732 11.093 13.3681V15.6705ZM13.6047 8.55414C13.6047 9.01461 13.2279 9.39135 12.7674 9.39135H11.093C10.6326 9.39135 10.2558 9.01461 10.2558 8.55414V7.29833C10.2558 6.83787 10.6326 6.46112 11.093 6.46112H12.7674C13.2279 6.46112 13.6047 6.83787 13.6047 7.29833V8.55414Z" fill="white"/>
</svg>
