<svg width="18" height="18" viewBox="0 0 18 18" fill="none" xmlns="http://www.w3.org/2000/svg">
<path d="M17.3077 18H0.692308C0.313846 18 0 17.7051 0 17.3494C0 16.9937 0.313846 16.6988 0.692308 16.6988H17.3077C17.6862 16.6988 18 16.9937 18 17.3494C18 17.7051 17.6862 18 17.3077 18Z" fill="white"/>
<path d="M3.09226 5.53351H1.61534C1.10765 5.53351 0.692261 5.92387 0.692261 6.40098V13.8786C0.692261 14.3557 1.10765 14.746 1.61534 14.746H3.09226C3.59995 14.746 4.01534 14.3557 4.01534 13.8786V6.40098C4.01534 5.9152 3.59995 5.53351 3.09226 5.53351Z" fill="white"/>
<path d="M9.73777 2.76843H8.26085C7.75315 2.76843 7.33777 3.15879 7.33777 3.6359V13.8807C7.33777 14.3578 7.75315 14.7482 8.26085 14.7482H9.73777C10.2455 14.7482 10.6608 14.3578 10.6608 13.8807V3.6359C10.6608 3.15879 10.2455 2.76843 9.73777 2.76843Z" fill="white"/>
<path d="M16.385 0H14.9081C14.4004 0 13.985 0.390361 13.985 0.86747V13.8795C13.985 14.3566 14.4004 14.747 14.9081 14.747H16.385C16.8927 14.747 17.3081 14.3566 17.3081 13.8795V0.86747C17.3081 0.390361 16.8927 0 16.385 0Z" fill="white"/>
</svg>
